<svg width="50" height="50" viewBox="0 0 50 50" fill="none" xmlns="http://www.w3.org/2000/svg">
<path fill-rule="evenodd" clip-rule="evenodd" d="M28.9316 4.11123C26.7452 1.99663 23.7535 0.625 20.4165 0.625C17.0796 0.625 14.0879 1.93947 11.9016 4.11123C9.71538 6.28297 8.39211 9.25484 8.39211 12.5696C8.39211 15.8843 9.71538 18.8562 11.9016 21.028C12.8797 21.9996 14.0304 22.8569 15.2962 23.4284C11.9016 24.2856 8.85238 26.1144 6.43596 28.5148C2.86889 32.0582 0.625092 37.0303 0.625092 42.4026V44.7457C0.625092 45.9459 1.08536 47.0317 1.89083 47.7747C2.63876 48.5749 3.73189 49.0321 4.94011 49.0321H25.307C26.0548 49.0321 26.6302 48.4606 26.6302 47.7176C26.6302 46.9746 26.0548 46.4031 25.307 46.4031H4.88257C4.36476 46.4031 3.90449 46.2317 3.61683 45.9459C3.32916 45.6601 3.15656 45.2602 3.15656 44.8029V42.4597C3.15656 37.7733 5.1127 33.5441 8.21951 30.4579C11.3838 27.3146 15.6414 25.4286 20.3591 25.4286C21.7975 25.4286 23.2357 25.6001 24.6165 25.943C26.0548 26.286 27.3782 26.8003 28.6439 27.4861C29.2767 27.829 30.0822 27.6003 30.4274 26.9717C30.7726 26.3431 30.5425 25.543 29.9096 25.2C28.5288 24.457 27.033 23.8284 25.4796 23.4284C26.8028 22.7996 27.9535 21.9996 28.9316 21.028C31.1179 18.8562 32.4411 15.8843 32.4411 12.5696C32.4411 9.25484 31.1179 6.28297 28.9316 4.11123ZM36.0084 41.3739H25.2497V34.8587H36.0084C36.7563 34.8587 37.3316 34.2299 37.3316 33.5442V30.9151L46.0767 38.1162L37.3316 45.2602V42.6884C37.3316 41.9454 36.7563 41.3739 36.0084 41.3739ZM34.685 44.0028H23.9262C23.2358 44.0028 22.603 43.4313 22.603 42.6884V33.5441C22.603 32.8012 23.1783 32.2296 23.9262 32.2296H34.685V28.1719C34.685 27.8861 34.8001 27.6004 34.9727 27.3146C35.4329 26.7432 36.2959 26.686 36.8137 27.1432L48.8957 37.0304L49.0683 37.2018C49.5287 37.7733 49.4711 38.5734 48.8957 39.0306L36.9287 49.0321C36.6987 49.2607 36.3535 49.375 36.0083 49.375C35.3179 49.375 34.685 48.8035 34.685 48.0605V44.0028ZM20.4167 3.19685C23.0058 3.19685 25.3646 4.28272 27.0332 5.9401C28.7016 7.65464 29.7947 9.94069 29.7947 12.5125C29.7947 15.0843 28.7016 17.4275 27.0332 19.0849C25.3646 20.7994 23.0058 21.8282 20.4167 21.8282C17.8278 21.8282 15.469 20.7423 13.8004 19.0849C12.0744 17.4275 11.0388 15.0843 11.0388 12.5125C11.0388 9.94069 12.132 7.59749 13.8004 5.9401C15.469 4.22556 17.8278 3.19685 20.4167 3.19685Z" fill="white"/>
<path d="M28.9316 4.11123L29.2135 3.82742L29.2096 3.82371L28.9316 4.11123ZM11.9016 4.11123L12.1835 4.39501L12.1835 4.39501L11.9016 4.11123ZM11.9016 21.028L11.6197 21.3118L11.6197 21.3118L11.9016 21.028ZM15.2962 23.4284L15.3941 23.8162L16.5055 23.5356L15.4608 23.0638L15.2962 23.4284ZM6.43596 28.5148L6.15407 28.231L6.15406 28.231L6.43596 28.5148ZM1.89083 47.7747L2.18305 47.5016L2.17293 47.4908L2.16203 47.4807L1.89083 47.7747ZM3.61683 45.9459L3.89874 45.6621L3.89873 45.6621L3.61683 45.9459ZM8.21951 30.4579L7.93761 30.1741L7.93761 30.1741L8.21951 30.4579ZM24.6165 25.943L24.5201 26.3312L24.5237 26.3321L24.6165 25.943ZM28.6439 27.4861L28.4534 27.8378L28.4534 27.8378L28.6439 27.4861ZM30.4274 26.9717L30.0767 26.7792L30.0767 26.7792L30.4274 26.9717ZM29.9096 25.2L30.1001 24.8483L30.0991 24.8477L29.9096 25.2ZM25.4796 23.4284L25.3079 23.0671L24.3114 23.5406L25.3798 23.8158L25.4796 23.4284ZM28.9316 21.028L29.2134 21.3118L29.2135 21.3118L28.9316 21.028ZM25.2497 41.3739H24.8497V41.7739H25.2497V41.3739ZM25.2497 34.8587V34.4587H24.8497V34.8587H25.2497ZM37.3316 30.9151L37.5859 30.6064L36.9316 30.0676V30.9151H37.3316ZM46.0767 38.1162L46.3298 38.426L46.7075 38.1174L46.331 37.8074L46.0767 38.1162ZM37.3316 45.2602H36.9316V46.1034L37.5847 45.57L37.3316 45.2602ZM34.685 44.0028H35.085V43.6028H34.685V44.0028ZM34.685 32.2296V32.6296H35.085V32.2296H34.685ZM34.9727 27.3146L34.6612 27.0637L34.6443 27.0847L34.6303 27.1078L34.9727 27.3146ZM36.8137 27.1432L36.549 27.443L36.5546 27.448L36.5604 27.4527L36.8137 27.1432ZM48.8957 37.0304L49.1776 36.7466L49.1639 36.733L49.149 36.7208L48.8957 37.0304ZM49.0683 37.2018L49.3798 36.9509L49.3659 36.9336L49.3502 36.918L49.0683 37.2018ZM48.8957 39.0306L48.6468 38.7174L48.6392 38.7237L48.8957 39.0306ZM36.9287 49.0321L36.6722 48.7252L36.659 48.7362L36.6468 48.7484L36.9287 49.0321ZM27.0332 5.9401L27.3199 5.6611L27.3151 5.65631L27.0332 5.9401ZM27.0332 19.0849L26.7512 18.8011L26.7465 18.8059L27.0332 19.0849ZM13.8004 19.0849L14.0824 18.8011L14.0775 18.7964L13.8004 19.0849ZM13.8004 5.9401L14.0824 6.22393L14.0871 6.21907L13.8004 5.9401ZM20.4165 1.025C23.6412 1.025 26.5354 2.35014 28.6535 4.39875L29.2096 3.82371C26.9551 1.64312 23.8658 0.225 20.4165 0.225V1.025ZM12.1835 4.39501C14.2966 2.29597 17.1877 1.025 20.4165 1.025V0.225C16.9716 0.225 13.8792 1.58298 11.6197 3.82745L12.1835 4.39501ZM8.7921 12.5696C8.7921 9.36463 10.0705 6.49398 12.1835 4.39501L11.6197 3.82744C9.36022 6.07196 7.99211 9.14505 7.99211 12.5696H8.7921ZM12.1835 20.7443C10.0705 18.6452 8.7921 15.7745 8.7921 12.5696H7.99211C7.99211 15.9941 9.36022 19.0672 11.6197 21.3118L12.1835 20.7443ZM15.4608 23.0638C14.2474 22.516 13.1352 21.6896 12.1835 20.7442L11.6197 21.3118C12.6241 22.3095 13.8134 23.1978 15.1316 23.793L15.4608 23.0638ZM6.71786 28.7985C9.08794 26.4442 12.0751 24.6543 15.3941 23.8162L15.1982 23.0406C11.7282 23.9168 8.61681 25.7846 6.15407 28.231L6.71786 28.7985ZM1.02509 42.4026C1.02509 37.1422 3.22254 32.2707 6.71786 28.7985L6.15406 28.231C2.51524 31.8457 0.225092 36.9185 0.225092 42.4026H1.02509ZM1.02509 44.7457V42.4026H0.225092V44.7457H1.02509ZM2.16203 47.4807C1.44526 46.8195 1.02509 45.8435 1.02509 44.7457H0.225092C0.225092 46.0483 0.725456 47.244 1.61962 48.0687L2.16203 47.4807ZM4.94011 48.6321C3.83251 48.6321 2.84868 48.2137 2.18305 47.5016L1.5986 48.0479C2.42884 48.9361 3.63128 49.4321 4.94011 49.4321V48.6321ZM25.307 48.6321H4.94011V49.4321H25.307V48.6321ZM26.2302 47.7176C26.2302 48.2372 25.8364 48.6321 25.307 48.6321V49.4321C26.2732 49.4321 27.0302 48.684 27.0302 47.7176H26.2302ZM25.307 46.8031C25.8364 46.8031 26.2302 47.1981 26.2302 47.7176H27.0302C27.0302 46.7512 26.2732 46.0031 25.307 46.0031V46.8031ZM4.88257 46.8031H25.307V46.0031H4.88257V46.8031ZM3.33492 46.2297C3.71374 46.606 4.28444 46.8031 4.88257 46.8031V46.0031C4.44509 46.0031 4.09524 45.8573 3.89874 45.6621L3.33492 46.2297ZM2.75656 44.8029C2.75656 45.3637 2.96959 45.8668 3.33493 46.2297L3.89873 45.6621C3.68874 45.4535 3.55656 45.1566 3.55656 44.8029H2.75656ZM2.75656 42.4597V44.8029H3.55656V42.4597H2.75656ZM7.93761 30.1741C4.76096 33.3297 2.75656 37.6589 2.75656 42.4597H3.55656C3.55656 37.8877 5.46444 33.7585 8.50141 30.7417L7.93761 30.1741ZM20.3591 25.0287C15.5311 25.0287 11.1736 26.9597 7.93761 30.1741L8.50141 30.7417C11.5941 27.6695 15.7516 25.8286 20.3591 25.8286V25.0287ZM24.7129 25.5548C23.2996 25.2038 21.8289 25.0287 20.3591 25.0287V25.8286C21.766 25.8286 23.1718 25.9964 24.5201 26.3312L24.7129 25.5548ZM28.8345 27.1344C27.5388 26.4323 26.1826 25.9052 24.7093 25.5539L24.5237 26.3321C25.927 26.6667 27.2176 27.1682 28.4534 27.8378L28.8345 27.1344ZM30.0767 26.7792C29.8398 27.2107 29.2782 27.3748 28.8345 27.1344L28.4534 27.8378C29.2753 28.2832 30.3245 27.99 30.778 27.1642L30.0767 26.7792ZM29.719 25.5517C30.1549 25.7879 30.3163 26.3429 30.0767 26.7792L30.778 27.1642C31.2288 26.3432 30.9301 25.2981 30.1001 24.8483L29.719 25.5517ZM25.3798 23.8158C26.896 24.2062 28.3617 24.8213 29.72 25.5522L30.0991 24.8477C28.6959 24.0927 27.1699 23.4506 25.5793 23.041L25.3798 23.8158ZM28.6497 20.7443C27.7057 21.6819 26.5929 22.4565 25.3079 23.0671L25.6513 23.7897C27.0127 23.1427 28.2014 22.3172 29.2134 21.3118L28.6497 20.7443ZM32.0411 12.5696C32.0411 15.7745 30.7627 18.6452 28.6497 20.7443L29.2135 21.3118C31.473 19.0672 32.8411 15.9941 32.8411 12.5696H32.0411ZM28.6497 4.39502C30.7627 6.49398 32.0411 9.36463 32.0411 12.5696H32.8411C32.8411 9.14506 31.473 6.07196 29.2134 3.82744L28.6497 4.39502ZM25.2497 41.7739H36.0084V40.9739H25.2497V41.7739ZM24.8497 34.8587V41.3739H25.6497V34.8587H24.8497ZM36.0084 34.4587H25.2497V35.2587H36.0084V34.4587ZM36.9316 33.5442C36.9316 34.0178 36.5266 34.4587 36.0084 34.4587V35.2587C36.9859 35.2587 37.7317 34.442 37.7317 33.5442H36.9316ZM36.9316 30.9151V33.5442H37.7317V30.9151H36.9316ZM46.331 37.8074L37.5859 30.6064L37.0774 31.2239L45.8224 38.425L46.331 37.8074ZM37.5847 45.57L46.3298 38.426L45.8236 37.8064L37.0786 44.9504L37.5847 45.57ZM36.9316 42.6884V45.2602H37.7317V42.6884H36.9316ZM36.0084 41.7739C36.5379 41.7739 36.9316 42.1688 36.9316 42.6884H37.7317C37.7317 41.722 36.9747 40.9739 36.0084 40.9739V41.7739ZM23.9262 44.4028H34.685V43.6028H23.9262V44.4028ZM22.203 42.6884C22.203 43.6659 23.0288 44.4028 23.9262 44.4028V43.6028C23.4428 43.6028 23.003 43.1968 23.003 42.6884H22.203ZM22.203 33.5441V42.6884H23.003V33.5441H22.203ZM23.9262 31.8296C22.9599 31.8296 22.203 32.5778 22.203 33.5441H23.003C23.003 33.0246 23.3968 32.6296 23.9262 32.6296V31.8296ZM34.685 31.8296H23.9262V32.6296H34.685V31.8296ZM34.285 28.1719V32.2296H35.085V28.1719H34.285ZM34.6303 27.1078C34.4416 27.4203 34.285 27.7806 34.285 28.1719H35.085C35.085 27.9917 35.1587 27.7804 35.3151 27.5214L34.6303 27.1078ZM37.0785 26.8433C36.39 26.2354 35.2646 26.3145 34.6612 27.0637L35.2842 27.5655C35.6013 27.1719 36.2019 27.1365 36.549 27.443L37.0785 26.8433ZM49.149 36.7208L37.0671 26.8336L36.5604 27.4527L48.6424 37.3399L49.149 36.7208ZM49.3502 36.918L49.1776 36.7466L48.6138 37.3142L48.7864 37.4856L49.3502 36.918ZM49.1446 39.3438C49.9073 38.7376 49.9682 37.6814 49.3798 36.9509L48.7568 37.4527C49.0891 37.8653 49.0348 38.4092 48.6469 38.7174L49.1446 39.3438ZM37.1853 49.3391L49.1522 39.3375L48.6392 38.7237L36.6722 48.7252L37.1853 49.3391ZM36.0083 49.775C36.4321 49.775 36.8885 49.636 37.2107 49.3159L36.6468 48.7484C36.5089 48.8854 36.2749 48.975 36.0083 48.975V49.775ZM34.285 48.0605C34.285 49.0381 35.1109 49.775 36.0083 49.775V48.975C35.5249 48.975 35.085 48.5689 35.085 48.0605H34.285ZM34.285 44.0028V48.0605H35.085V44.0028H34.285ZM27.3151 5.65631C25.5767 3.92954 23.1184 2.79685 20.4167 2.79685V3.59685C22.8933 3.59685 25.1526 4.6359 26.7513 6.22389L27.3151 5.65631ZM30.1947 12.5125C30.1947 9.82279 29.0508 7.43992 27.3198 5.66114L26.7465 6.21906C28.3524 7.86936 29.3947 10.0586 29.3947 12.5125H30.1947ZM27.3151 19.3687C29.0533 17.6419 30.1947 15.1986 30.1947 12.5125H29.3947C29.3947 14.9699 28.3498 17.2132 26.7513 18.8011L27.3151 19.3687ZM20.4167 22.2282C23.1129 22.2282 25.5753 21.1564 27.3198 19.3639L26.7465 18.8059C25.1539 20.4424 22.8988 21.4282 20.4167 21.4282V22.2282ZM13.5185 19.3687C15.2569 21.0955 17.7152 22.2282 20.4167 22.2282V21.4282C17.9403 21.4282 15.681 20.3891 14.0823 18.8011L13.5185 19.3687ZM10.6388 12.5125C10.6388 15.1931 11.7188 17.6405 13.5234 19.3734L14.0775 18.7964C12.4301 17.2145 11.4388 14.9755 11.4388 12.5125H10.6388ZM13.5185 5.65632C11.7802 7.38311 10.6388 9.82635 10.6388 12.5125H11.4388C11.4388 10.055 12.4837 7.81186 14.0823 6.22389L13.5185 5.65632ZM20.4167 2.79685C17.7207 2.79685 15.2583 3.86854 13.5138 5.66113L14.0871 6.21907C15.6797 4.58259 17.9348 3.59685 20.4167 3.59685V2.79685Z" fill="white"/>
</svg>
