<svg width="38" height="40" viewBox="0 0 38 40" fill="none" xmlns="http://www.w3.org/2000/svg">
<path d="M21.8126 37.9495L22.0876 39.4241L22.0877 39.4241L21.8126 37.9495ZM16.4361 38.0028L16.6837 36.5234L16.6828 36.5233L16.4361 38.0028ZM15.5413 37.2301L14.1049 37.6623L14.1051 37.6628L15.5413 37.2301ZM14.5266 33.858L15.963 33.4258L15.9629 33.4254L14.5266 33.858ZM13.7165 32.8599L12.9861 34.17L12.9864 34.1702L13.7165 32.8599ZM10.04 30.8102L10.7704 29.5L10.7701 29.4999L10.04 30.8102ZM8.74354 30.6454L8.36782 29.1932L8.36769 29.1932L8.74354 30.6454ZM5.28032 31.5417L5.65605 32.9939L5.65617 32.9939L5.28032 31.5417ZM4.14077 31.1963L5.27014 30.2091L5.26999 30.2089L4.14077 31.1963ZM1.56987 26.9242L0.16825 27.4585L0.168264 27.4585L1.56987 26.9242ZM1.8146 25.7896L0.750245 24.7327L0.748295 24.7347L1.8146 25.7896ZM4.41876 23.1673L5.48311 24.2242L5.48389 24.2234L4.41876 23.1673ZM4.40809 16.7237L5.45015 15.6447L5.45002 15.6446L4.40809 16.7237ZM1.81209 14.217L0.770036 15.296L0.770166 15.2961L1.81209 14.217ZM1.5567 13.0928L0.155252 12.5581L0.155072 12.5585L1.5567 13.0928ZM2.67742 10.9237L3.96472 11.6937L3.96474 11.6937L2.67742 10.9237ZM4.10438 8.84923L5.23686 9.83284L5.23823 9.83125L4.10438 8.84923ZM5.24581 8.48862L4.8987 9.94791L4.89962 9.94813L5.24581 8.48862ZM8.95061 9.3674L8.60442 10.8269L8.60517 10.8271L8.95061 9.3674ZM10.2508 9.18862L10.981 10.4989L10.9815 10.4986L10.2508 9.18862ZM13.9267 7.13834L13.1966 5.82805L13.1961 5.82833L13.9267 7.13834ZM14.7231 6.13653L13.2776 5.73558L13.2776 5.73561L14.7231 6.13653ZM15.6593 2.76141L17.1047 3.16237L17.1047 3.16233L15.6593 2.76141ZM16.5403 1.98748L16.2994 0.506963L16.2981 0.50716L16.5403 1.98748ZM21.5874 2.01112L21.8439 0.533222L21.8439 0.533212L21.5874 2.01112ZM22.4665 2.79172L21.0211 3.19263L21.0211 3.19277L22.4665 2.79172ZM23.3946 6.13653L24.84 5.73561L24.84 5.73548L23.3946 6.13653ZM24.1903 7.13834L23.459 8.44804L23.4597 8.4484L24.1903 7.13834ZM27.8668 9.18862L27.1362 10.4987L27.1366 10.4989L27.8668 9.18862ZM29.1632 9.35346L29.539 10.8056L29.5391 10.8056L29.1632 9.35346ZM32.6265 8.45711L32.2507 7.00493L32.2506 7.00496L32.6265 8.45711ZM33.766 8.80195L32.6366 9.78913L32.6368 9.78935L33.766 8.80195ZM36.4084 13.2437L37.8159 12.7249L37.8153 12.7235L36.4084 13.2437ZM36.1461 14.371L37.1881 15.4501L37.1882 15.4499L36.1461 14.371ZM33.7095 16.7237L32.6676 15.6446L32.6675 15.6447L33.7095 16.7237ZM33.7095 23.157L32.6675 24.2359H32.6675L33.7095 23.157ZM36.1825 25.5454L37.2246 24.4665H37.2246L36.1825 25.5454ZM36.4474 26.6733L35.0383 26.1588L35.0382 26.1592L36.4474 26.6733ZM35.2294 29.0751L36.5167 29.845L36.5171 29.8443L35.2294 29.0751ZM33.8024 31.1502L34.934 32.1348L34.936 32.1326L33.8024 31.1502ZM32.6641 31.4969L32.2883 32.949L32.2884 32.949L32.6641 31.4969ZM29.3741 30.6454L29.7499 29.1932L29.7492 29.193L29.3741 30.6454ZM28.0777 30.8102L27.3475 29.4999L27.3473 29.5L28.0777 30.8102ZM24.4011 32.8599L25.1313 34.1702L25.1315 34.17L24.4011 32.8599ZM23.6054 33.8617L25.0508 34.2626L25.0508 34.2626L23.6054 33.8617ZM22.6905 37.1598L21.2451 36.7589L21.2451 36.7589L22.6905 37.1598ZM21.5377 36.4749C20.1885 36.7265 18.0712 36.7556 16.6837 36.5234L16.1885 39.4823C17.9298 39.7737 20.4009 39.7386 22.0876 39.4241L21.5377 36.4749ZM16.6828 36.5233C16.7574 36.5357 16.8042 36.5564 16.8249 36.5668C16.8467 36.5778 16.8587 36.5871 16.8657 36.5932C16.8726 36.5991 16.8859 36.6116 16.9031 36.6363C16.9194 36.6597 16.9518 36.7121 16.9776 36.7974L14.1051 37.6628C14.2609 38.1802 14.5836 38.5861 14.9047 38.8634C15.2279 39.1426 15.6698 39.3958 16.1894 39.4824L16.6828 36.5233ZM16.9777 36.7979L15.963 33.4258L13.0903 34.2903L14.1049 37.6623L16.9777 36.7979ZM15.9629 33.4254C15.8352 33.0015 15.5988 32.6278 15.3723 32.3486C15.1445 32.0679 14.8294 31.7629 14.4467 31.5496L12.9864 34.1702C12.9553 34.1528 12.9527 34.1467 12.9733 34.165C12.9917 34.1813 13.0166 34.2068 13.0427 34.2388C13.0688 34.271 13.0876 34.2995 13.0985 34.3186C13.111 34.3405 13.1028 34.3319 13.0904 34.2907L15.9629 33.4254ZM14.4469 31.5497L10.7704 29.5L9.30956 32.1204L12.9861 34.17L14.4469 31.5497ZM10.7701 29.4999C10.3845 29.285 9.95503 29.1782 9.59559 29.1325C9.23563 29.0867 8.79402 29.0829 8.36782 29.1932L9.11926 32.0975C9.0846 32.1065 9.07923 32.1036 9.10874 32.1026C9.13521 32.1017 9.17321 32.1029 9.21709 32.1085C9.26101 32.1141 9.29773 32.1223 9.32244 32.1296C9.35017 32.1378 9.34281 32.1389 9.30979 32.1205L10.7701 29.4999ZM8.36769 29.1932L4.90448 30.0896L5.65617 32.9939L9.11938 32.0975L8.36769 29.1932ZM4.9046 30.0895C4.97991 30.07 5.03214 30.0702 5.05459 30.0713C5.07845 30.0725 5.09196 30.076 5.09889 30.0781C5.10573 30.0802 5.12052 30.0853 5.14374 30.0992C5.16556 30.1123 5.21385 30.1447 5.27014 30.2091L3.0114 32.1834C3.36464 32.5876 3.82263 32.826 4.22808 32.9489C4.63516 33.0724 5.14351 33.1265 5.65605 32.9939L4.9046 30.0895ZM5.26999 30.2089C4.42036 29.2372 3.4127 27.5473 2.97148 26.3899L0.168264 27.4585C0.734824 28.9447 1.92595 30.942 3.01155 32.1836L5.26999 30.2089ZM2.9715 26.3899C3.00337 26.4735 3.01035 26.537 3.01181 26.5702C3.01332 26.6046 3.00992 26.628 3.00669 26.643C3.00344 26.658 2.99721 26.6792 2.98294 26.7075C2.96919 26.7348 2.93937 26.7855 2.88091 26.8446L0.748295 24.7347C0.371668 25.1153 0.165283 25.5882 0.0742332 26.01C-0.0165551 26.4305 -0.025088 26.9513 0.16825 27.4585L2.9715 26.3899ZM2.87896 26.8466L5.48311 24.2242L3.3544 22.1103L0.750247 24.7327L2.87896 26.8466ZM5.48389 24.2234C5.79378 23.9109 6.01065 23.5285 6.14958 23.1945C6.28791 22.8621 6.40821 22.4354 6.40821 21.9903H3.40821C3.40821 21.9658 3.40993 21.9513 3.41036 21.9478C3.41085 21.9441 3.41069 21.9468 3.40859 21.9558C3.40408 21.9752 3.39483 22.0059 3.37976 22.0421C3.36473 22.0782 3.34904 22.1075 3.33729 22.1263C3.33178 22.1351 3.32911 22.1385 3.33025 22.137C3.3312 22.1357 3.33855 22.1263 3.35362 22.1111L5.48389 24.2234ZM6.40821 21.9903V17.8903H3.40821V21.9903H6.40821ZM6.40821 17.8903C6.40821 17.4393 6.28363 17.009 6.14041 16.6748C5.99655 16.3391 5.77169 15.9553 5.45015 15.6447L3.36603 17.8026C3.34953 17.7867 3.34095 17.7762 3.339 17.7738C3.33685 17.7711 3.33869 17.7731 3.34352 17.7806C3.35394 17.7967 3.36866 17.8231 3.38297 17.8565C3.39731 17.89 3.40584 17.9178 3.40977 17.9343C3.41157 17.9419 3.41145 17.943 3.41074 17.9377C3.41009 17.9326 3.40821 17.9165 3.40821 17.8903H6.40821ZM5.45002 15.6446L2.85402 13.138L0.770166 15.2961L3.36616 17.8028L5.45002 15.6446ZM2.85415 13.1381C2.9158 13.1976 2.94854 13.2504 2.96455 13.2809C2.98101 13.3122 2.9888 13.3369 2.99303 13.3555C2.99725 13.3741 3.00119 13.401 2.99972 13.4388C2.99828 13.4756 2.99089 13.5416 2.95832 13.6271L0.155072 12.5585C-0.0399249 13.0701 -0.028926 13.5951 0.0674926 14.0198C0.164166 14.4456 0.380448 14.9197 0.770036 15.296L2.85415 13.1381ZM2.95814 13.6276C3.03648 13.4223 3.44433 12.5637 3.96472 11.6937L1.39013 10.1538C0.818657 11.1092 0.317877 12.1319 0.155252 12.5581L2.95814 13.6276ZM3.96474 11.6937C4.49625 10.805 5.07614 10.0179 5.23686 9.83284L2.9719 7.86562C2.6557 8.22967 1.97431 9.17704 1.3901 10.1538L3.96474 11.6937ZM5.23823 9.83125C5.18318 9.89482 5.13653 9.92631 5.11683 9.93834C5.09566 9.95127 5.08313 9.95551 5.07868 9.95691C5.07413 9.95835 5.06319 9.96151 5.0419 9.96292C5.02209 9.96424 4.97228 9.96541 4.8987 9.94791L5.59292 7.02934C5.08172 6.90774 4.57745 6.96905 4.17456 7.0964C3.77345 7.22318 3.31979 7.46393 2.97052 7.86721L5.23823 9.83125ZM4.89962 9.94813L8.60442 10.8269L9.29681 7.9079L5.59201 7.02912L4.89962 9.94813ZM8.60517 10.8271C9.02725 10.927 9.46398 10.9173 9.82022 10.8684C10.1759 10.8195 10.6005 10.711 10.981 10.4989L9.52063 7.87833C9.55112 7.86135 9.55571 7.86336 9.52526 7.87254C9.49788 7.88079 9.45841 7.88989 9.41179 7.89629C9.3652 7.9027 9.32429 7.90465 9.29482 7.90409C9.26227 7.90347 9.26438 7.90023 9.29606 7.90772L8.60517 10.8271ZM10.9815 10.4986L14.6574 8.44835L13.1961 5.82833L9.52014 7.87861L10.9815 10.4986ZM14.6569 8.44862C15.0446 8.23258 15.3609 7.92248 15.5881 7.63675C15.8138 7.3528 16.0482 6.97123 16.1685 6.53745L13.2776 5.73561C13.2845 5.71072 13.2905 5.69615 13.2922 5.69212C13.294 5.68775 13.2935 5.6896 13.2894 5.69715C13.2804 5.7135 13.2637 5.73972 13.2396 5.76993C13.2157 5.80006 13.1929 5.82357 13.1766 5.8382C13.169 5.84505 13.1656 5.84747 13.1671 5.84634C13.1684 5.8454 13.178 5.83839 13.1966 5.82805L14.6569 8.44862ZM16.1685 6.53748L17.1047 3.16237L14.2139 2.36046L13.2776 5.73558L16.1685 6.53748ZM17.1047 3.16233C17.08 3.25157 17.0467 3.30813 17.0283 3.33544C17.009 3.36394 16.993 3.37976 16.9831 3.38846C16.9731 3.39727 16.9579 3.40885 16.9329 3.42152C16.9089 3.43368 16.8593 3.45525 16.7825 3.46781L16.2981 0.50716C15.7734 0.593001 15.3281 0.849214 15.0033 1.13453C14.6807 1.41785 14.3602 1.83295 14.2139 2.3605L17.1047 3.16233ZM16.7813 3.468C18.035 3.26396 20.0461 3.26606 21.3309 3.48903L21.8439 0.533212C20.2232 0.251944 17.8757 0.250406 16.2994 0.506963L16.7813 3.468ZM21.3308 3.48902C21.2546 3.4758 21.2061 3.45405 21.1835 3.44237C21.1599 3.43014 21.146 3.41935 21.1372 3.41158C21.1286 3.40392 21.1138 3.38928 21.0955 3.36211C21.0781 3.33619 21.0455 3.28084 21.0211 3.19263L23.9119 2.3908C23.7663 1.86569 23.4481 1.4515 23.1289 1.16808C22.8074 0.882707 22.3658 0.623817 21.8439 0.533222L21.3308 3.48902ZM21.0211 3.19277L21.9492 6.53758L24.84 5.73548L23.9119 2.39066L21.0211 3.19277ZM21.9491 6.53745C22.0695 6.97119 22.3038 7.35267 22.5293 7.63644C22.7561 7.92198 23.072 8.23196 23.459 8.44804L24.9215 5.82863C24.94 5.83899 24.9497 5.84601 24.9509 5.84694C24.9524 5.84806 24.949 5.84561 24.9413 5.83873C24.925 5.82404 24.9021 5.80045 24.8782 5.77024C24.8541 5.73996 24.8374 5.71366 24.8283 5.69725C24.8242 5.68967 24.8236 5.6878 24.8255 5.69215C24.8272 5.69617 24.8331 5.71072 24.84 5.73561L21.9491 6.53745ZM23.4597 8.4484L27.1362 10.4987L28.5974 7.87855L24.9208 5.82827L23.4597 8.4484ZM27.1366 10.4989C27.5222 10.7138 27.9518 10.8206 28.3112 10.8663C28.6712 10.9121 29.1128 10.9159 29.539 10.8056L28.7875 7.90128C28.8222 7.89231 28.8276 7.89524 28.798 7.89625C28.7716 7.89715 28.7336 7.89588 28.6897 7.8903C28.6458 7.88471 28.6091 7.87647 28.5844 7.86917C28.5566 7.86097 28.564 7.85993 28.597 7.87833L27.1366 10.4989ZM29.5391 10.8056L33.0023 9.90926L32.2506 7.00496L28.7874 7.90131L29.5391 10.8056ZM33.0022 9.90929C32.9272 9.92868 32.8753 9.92858 32.853 9.92746C32.8293 9.92627 32.8158 9.92281 32.8089 9.9207C32.802 9.91862 32.7871 9.9135 32.7637 9.89948C32.7416 9.88628 32.6931 9.85375 32.6366 9.78913L34.8954 7.81478C34.5418 7.4102 34.0833 7.17199 33.6777 7.04928C33.2705 6.92605 32.7626 6.8725 32.2507 7.00493L33.0022 9.90929ZM32.6368 9.78935C33.5243 10.8043 34.5528 12.5504 35.0016 13.764L37.8153 12.7235C37.2413 11.171 36.0258 9.10751 34.8952 7.81456L32.6368 9.78935ZM35.001 13.7626C34.9699 13.678 34.9634 13.6134 34.9623 13.5786C34.9612 13.5426 34.9651 13.5176 34.969 13.5009C34.9729 13.4841 34.9802 13.4612 34.9959 13.4314C35.0112 13.4025 35.0431 13.3509 35.1041 13.292L37.1882 15.4499C37.5761 15.0753 37.7926 14.6035 37.891 14.1806C37.9891 13.7587 38.0043 13.2361 37.8159 12.7249L35.001 13.7626ZM35.1042 13.2919L32.6676 15.6446L34.7515 17.8028L37.1881 15.4501L35.1042 13.2919ZM32.6675 15.6447C32.3459 15.9553 32.1211 16.3391 31.9772 16.6748C31.834 17.009 31.7094 17.4393 31.7094 17.8903H34.7094C34.7094 17.9165 34.7075 17.9326 34.7069 17.9377C34.7062 17.943 34.7061 17.9419 34.7079 17.9343C34.7118 17.9178 34.7203 17.89 34.7347 17.8565C34.749 17.8231 34.7637 17.7967 34.7741 17.7806C34.7789 17.7731 34.7808 17.7711 34.7786 17.7738C34.7767 17.7762 34.7681 17.7867 34.7516 17.8026L32.6675 15.6447ZM31.7094 17.8903V21.9903H34.7094V17.8903H31.7094ZM31.7094 21.9903C31.7094 22.4415 31.8339 22.8718 31.9773 23.2063C32.1213 23.5422 32.3462 23.9256 32.6675 24.2359L34.7516 22.078C34.768 22.0939 34.7765 22.1043 34.7785 22.1067C34.7806 22.1093 34.7787 22.1073 34.7739 22.0998C34.7635 22.0838 34.7488 22.0574 34.7346 22.0242C34.7203 21.9908 34.7118 21.9631 34.7079 21.9467C34.7061 21.9391 34.7062 21.938 34.7069 21.9433C34.7076 21.9483 34.7094 21.9643 34.7094 21.9903H31.7094ZM32.6675 24.2359L35.1405 26.6244L37.2246 24.4665L34.7516 22.078L32.6675 24.2359ZM35.1405 26.6244C35.0798 26.5657 35.0481 26.5145 35.0332 26.4863C35.0177 26.4572 35.0107 26.4349 35.0069 26.4187C35.0031 26.4027 34.9992 26.3782 35.0002 26.3426C35.0011 26.3083 35.0073 26.2437 35.0383 26.1588L37.8564 27.1877C38.0432 26.6761 38.0262 26.1537 37.9275 25.7331C37.8285 25.3114 37.6119 24.8405 37.2246 24.4665L35.1405 26.6244ZM35.0382 26.1592C34.9377 26.4346 34.5033 27.3655 33.9416 28.3058L36.5171 29.8443C37.1364 28.8077 37.6696 27.6999 37.8565 27.1873L35.0382 26.1592ZM33.942 28.3051C33.4108 29.1934 32.8305 29.9813 32.6689 30.1678L34.936 32.1326C35.2512 31.7688 35.9322 30.8222 36.5167 29.845L33.942 28.3051ZM32.6708 30.1656C32.727 30.101 32.7754 30.0684 32.7975 30.055C32.8209 30.0409 32.836 30.0357 32.8432 30.0335C32.8505 30.0312 32.8645 30.0277 32.8887 30.0264C32.9116 30.0252 32.9642 30.0251 33.0398 30.0447L32.2884 32.949C32.8016 33.0818 33.3105 33.0273 33.7179 32.9031C34.1237 32.7795 34.5815 32.54 34.934 32.1348L32.6708 30.1656ZM33.0399 30.0447L29.7499 29.1932L28.9983 32.0975L32.2883 32.949L33.0399 30.0447ZM29.7492 29.193C29.3232 29.083 28.8819 29.0867 28.5217 29.1325C28.1622 29.1782 27.7329 29.2851 27.3475 29.4999L28.8078 32.1205C28.775 32.1388 28.7676 32.1378 28.7953 32.1296C28.8199 32.1223 28.8565 32.1141 28.9004 32.1085C28.9442 32.1029 28.9821 32.1017 29.0086 32.1026C29.0382 32.1036 29.0331 32.1065 28.999 32.0977L29.7492 29.193ZM27.3473 29.5L23.6707 31.5497L25.1315 34.17L28.8081 32.1204L27.3473 29.5ZM23.6709 31.5496C23.2829 31.7658 22.9666 32.0763 22.7396 32.3621C22.514 32.6462 22.2801 33.0276 22.16 33.4608L25.0508 34.2626C25.044 34.2873 25.0381 34.3017 25.0364 34.3057C25.0346 34.3099 25.0352 34.308 25.0394 34.3004C25.0484 34.284 25.0651 34.2578 25.089 34.2277C25.1129 34.1976 25.1356 34.1742 25.1517 34.1597C25.1593 34.1529 25.1626 34.1505 25.161 34.1517C25.1596 34.1527 25.1499 34.1598 25.1313 34.1702L23.6709 31.5496ZM22.16 33.4607L21.2451 36.7589L24.1359 37.5608L25.0508 34.2626L22.16 33.4607ZM21.2451 36.7589C21.2692 36.672 21.3009 36.6182 21.317 36.5941C21.334 36.5686 21.3473 36.5555 21.3543 36.5493C21.3614 36.5429 21.3735 36.5332 21.3953 36.5216C21.4159 36.5107 21.4627 36.4889 21.5376 36.4749L22.0877 39.4241C22.6059 39.3274 23.0431 39.0653 23.3606 38.7796C23.676 38.496 23.9911 38.0828 24.1359 37.5607L21.2451 36.7589ZM13.9375 20.0002C13.9375 17.3182 16.1745 15.0828 19 15.0828V12.0828C14.5811 12.0828 10.9375 15.5985 10.9375 20.0002H13.9375ZM19 15.0828C21.8252 15.0828 24.0625 17.3182 24.0625 20.0002H27.0625C27.0625 15.5984 23.4184 12.0828 19 12.0828V15.0828ZM24.0625 20.0002C24.0625 22.6815 21.8253 24.917 19 24.917V27.917C23.4183 27.917 27.0625 24.4015 27.0625 20.0002H24.0625ZM19 24.917C16.1744 24.917 13.9375 22.6816 13.9375 20.0002H10.9375C10.9375 24.4014 14.5812 27.917 19 27.917V24.917Z" fill="white"/>
</svg>
