<svg width="36" height="36" viewBox="0 0 36 36" fill="none" xmlns="http://www.w3.org/2000/svg">
<path fill-rule="evenodd" clip-rule="evenodd" d="M15.4223 4.97669L2.65403 26.2922C2.39078 26.748 2.25149 27.2649 2.25001 27.7914C2.24853 28.3179 2.38493 28.8354 2.64563 29.2928C2.90632 29.7502 3.28223 30.1314 3.73595 30.3984C4.18966 30.6653 4.70538 30.8088 5.23179 30.8146H30.7682C31.2946 30.8088 31.8103 30.6653 32.2641 30.3984C32.7178 30.1314 33.0936 29.7502 33.3544 29.2928C33.6151 28.8354 33.7515 28.3179 33.75 27.7914C33.7485 27.2649 33.6092 26.748 33.346 26.2922L20.5778 4.97669C20.309 4.53366 19.9306 4.16736 19.4791 3.91314C19.0277 3.65894 18.5181 3.52539 18 3.52539C17.4819 3.52539 16.9724 3.65894 16.5209 3.91314C16.0694 4.16736 15.691 4.53366 15.4223 4.97669V4.97669Z" stroke="white" stroke-width="3" stroke-linecap="round" stroke-linejoin="round"/>
<path d="M17.9998 12.7246V18.7544" stroke="white" stroke-width="3" stroke-linecap="round" stroke-linejoin="round"/>
<path d="M17.9998 24.7852H18.0148" stroke="white" stroke-width="3" stroke-linecap="round" stroke-linejoin="round"/>
</svg>
