<svg width="32" height="32" viewBox="0 0 32 32" fill="none" xmlns="http://www.w3.org/2000/svg">
<path fill-rule="evenodd" clip-rule="evenodd" d="M22.9562 6.23317C22.6782 5.66905 21.9173 5.43467 21.3594 5.86653L13.9933 11.5676L8.23277 11.5685C7.64901 11.5685 7.17578 12.0418 7.17578 12.6255V21.5102L7.18289 21.6335C7.24395 22.1592 7.69071 22.5672 8.23277 22.5672L13.3039 22.5667L14.5428 20.4702C14.4809 20.459 14.4178 20.4532 14.3543 20.4532L9.28964 20.4526V13.6815L14.3543 13.6825C14.5885 13.6825 14.816 13.6047 15.0012 13.4613L20.9493 8.85639V9.62924L22.9562 6.23317ZM16.2888 21.6708L20.9493 25.2777V13.7844L23.0634 10.2069V27.4334C23.0634 28.3118 22.054 28.8069 21.3594 28.2692L15.2048 23.5051L16.2888 21.6708Z" fill="#494949"/>
<path fill-rule="evenodd" clip-rule="evenodd" d="M9.73438 29.944L26.2657 2.18598L9.73438 29.944Z" fill="#494949"/>
<path d="M9.73438 29.944L26.2657 2.18598" stroke="#494949" stroke-width="3"/>
</svg>
