<svg width="44" height="44" viewBox="0 0 44 44" fill="none" xmlns="http://www.w3.org/2000/svg">
    <path class="stroke-color-text" d="M10.1763 16.9365H2.75V27.7149H10.1763L19.4592 34.9004V9.75098L10.1763 16.9365Z" stroke="white"
          stroke-width="3" stroke-linecap="round" stroke-linejoin="round"/>
    <mask id="path-2-inside-1_21_959" fill="white">
        <path fill-rule="evenodd" clip-rule="evenodd"
              d="M27.1701 15.2708C27.5542 14.8739 28.1872 14.8636 28.5841 15.2477C30.5153 17.1169 31.6065 19.6588 31.6065 22.3165C31.6065 24.9742 30.5153 27.5161 28.5841 29.3853C28.1872 29.7694 27.5542 29.759 27.1701 29.3622C26.786 28.9653 26.7963 28.3323 27.1931 27.9482C28.7425 26.4486 29.6065 24.4222 29.6065 22.3165C29.6065 20.2108 28.7425 18.1844 27.1931 16.6848C26.7963 16.3007 26.786 15.6676 27.1701 15.2708ZM33.7238 8.92953C34.1079 8.53268 34.741 8.52235 35.1378 8.90645C38.8093 12.46 40.8781 17.2861 40.8781 22.3255C40.8781 27.3648 38.8093 32.191 35.1378 35.7445C34.741 36.1286 34.1079 36.1182 33.7238 35.7214C33.3397 35.3245 33.35 34.6915 33.7469 34.3074C37.0365 31.1234 38.8781 26.8128 38.8781 22.3255C38.8781 17.8381 37.0365 13.5275 33.7469 10.3436C33.35 9.95946 33.3397 9.32638 33.7238 8.92953Z"/>
    </mask>
    <path class="fill-color-text" d="M28.5841 15.2477L29.975 13.8106L29.975 13.8106L28.5841 15.2477ZM27.1701 15.2708L28.6072 16.6617L27.1701 15.2708ZM28.5841 29.3853L27.1931 27.9482H27.1931L28.5841 29.3853ZM27.1701 29.3622L28.6072 27.9712L28.6072 27.9712L27.1701 29.3622ZM27.1931 27.9482L25.8022 26.511L25.8022 26.511L27.1931 27.9482ZM27.1931 16.6848L28.5841 15.2477L28.5841 15.2477L27.1931 16.6848ZM35.1378 8.90645L33.7469 10.3436L33.7469 10.3436L35.1378 8.90645ZM33.7238 8.92953L35.1609 10.3205L35.1609 10.3205L33.7238 8.92953ZM35.1378 35.7445L33.7469 34.3074L33.7469 34.3074L35.1378 35.7445ZM33.7238 35.7214L32.2867 37.1123L32.2867 37.1123L33.7238 35.7214ZM33.7469 34.3074L32.3559 32.8703L32.3559 32.8703L33.7469 34.3074ZM33.7469 10.3436L35.1378 8.90645L35.1378 8.90645L33.7469 10.3436ZM29.975 13.8106C28.7845 12.6583 26.8852 12.6893 25.7329 13.8798L28.6072 16.6617C28.2231 17.0586 27.59 17.0689 27.1931 16.6848L29.975 13.8106ZM33.6065 22.3165C33.6065 19.1067 32.288 16.0493 29.975 13.8106L27.1931 16.6848C28.7425 18.1844 29.6065 20.2109 29.6065 22.3165H33.6065ZM29.975 30.8224C32.288 28.5837 33.6065 25.5262 33.6065 22.3165H29.6065C29.6065 24.4221 28.7425 26.4485 27.1931 27.9482L29.975 30.8224ZM25.7329 30.7531C26.8852 31.9437 28.7845 31.9747 29.975 30.8224L27.1931 27.9482C27.59 27.5641 28.2231 27.5744 28.6072 27.9712L25.7329 30.7531ZM25.8022 26.511C24.6117 27.6633 24.5807 29.5626 25.7329 30.7531L28.6072 27.9712C28.9913 28.3681 28.9809 29.0012 28.5841 29.3853L25.8022 26.511ZM27.6065 22.3165C27.6065 23.8703 26.9696 25.3811 25.8022 26.511L28.5841 29.3853C30.5153 27.5161 31.6065 24.9741 31.6065 22.3165H27.6065ZM25.8022 18.1219C26.9696 19.2518 27.6065 20.7627 27.6065 22.3165H31.6065C31.6065 19.6589 30.5153 17.1169 28.5841 15.2477L25.8022 18.1219ZM25.7329 13.8798C24.5807 15.0704 24.6117 16.9696 25.8022 18.1219L28.5841 15.2477C28.9809 15.6318 28.9913 16.2649 28.6072 16.6617L25.7329 13.8798ZM36.5287 7.46934C35.3382 6.31704 33.439 6.34805 32.2867 7.53859L35.1609 10.3205C34.7768 10.7173 34.1437 10.7277 33.7469 10.3436L36.5287 7.46934ZM42.8781 22.3255C42.8781 16.7341 40.5821 11.3924 36.5287 7.46933L33.7469 10.3436C37.0365 13.5275 38.8781 17.8381 38.8781 22.3255H42.8781ZM36.5287 37.1816C40.5821 33.2585 42.8781 27.9169 42.8781 22.3255H38.8781C38.8781 26.8128 37.0365 31.1234 33.7469 34.3074L36.5287 37.1816ZM32.2867 37.1123C33.439 38.3029 35.3382 38.3339 36.5287 37.1816L33.7469 34.3074C34.1437 33.9233 34.7768 33.9336 35.1609 34.3305L32.2867 37.1123ZM32.3559 32.8703C31.1654 34.0226 31.1344 35.9218 32.2867 37.1123L35.1609 34.3305C35.545 34.7273 35.5347 35.3604 35.1378 35.7445L32.3559 32.8703ZM36.8781 22.3255C36.8781 26.2609 35.2636 30.056 32.3559 32.8703L35.1378 35.7445C38.8093 32.1909 40.8781 27.3648 40.8781 22.3255H36.8781ZM32.3559 11.7807C35.2636 14.595 36.8781 18.39 36.8781 22.3255H40.8781C40.8781 17.2861 38.8093 12.46 35.1378 8.90645L32.3559 11.7807ZM32.2867 7.53859C31.1344 8.72913 31.1654 10.6284 32.3559 11.7807L35.1378 8.90645C35.5347 9.29054 35.545 9.92362 35.1609 10.3205L32.2867 7.53859Z"
          fill="white" mask="url(#path-2-inside-1_21_959)"/>
</svg>
