<svg width="44" height="44" viewBox="0 0 44 44" fill="none" xmlns="http://www.w3.org/2000/svg">
    <path class="stroke-color-text" d="M2.75 33.5696V41.272M16.3832 23.9446H23.1998M38.5371 13.3643V17.2095M19.7915 23.9446V30.9663C19.7919 31.694 19.5716 32.3999 19.1672 32.9669C18.7629 33.5339 18.1988 33.9277 17.5687 34.0831L2.75 37.4268L19.7915 23.9446ZM35.1288 10.1997V16.9229C35.1288 17.7653 34.8322 18.5733 34.3042 19.169C33.7761 19.7647 33.06 20.0994 32.3133 20.0994H14.679C14.2351 20.1138 13.7932 20.0274 13.3794 19.8452C12.9657 19.6631 12.5887 19.389 12.2707 19.0392C11.9528 18.6894 11.7004 18.271 11.5286 17.809C11.3568 17.347 11.2691 16.8507 11.2707 16.3497L35.1288 10.1997ZM26.3646 16.2064H12.3821C11.6354 16.2064 10.9193 15.8717 10.3912 15.276C9.86323 14.6803 9.56659 13.8723 9.56659 13.0299V10.761C9.56659 8.64423 10.3112 6.61401 11.6369 5.11612C12.9626 3.61824 14.761 2.77515 16.6372 2.77199H38.0396C38.7202 2.76981 39.3784 3.0458 39.8925 3.54889C40.4066 4.05198 40.7418 4.74813 40.836 5.50852C40.9303 6.26891 40.7772 7.04209 40.4052 7.68499C40.0331 8.3279 39.4673 8.79701 38.8123 9.00554L29.72 11.9432C29.3138 12.0754 28.9568 12.3531 28.7028 12.7344C28.4488 13.1157 28.3117 13.5799 28.3122 14.0569C28.3122 14.3449 28.2618 14.63 28.1638 14.8959C28.0658 15.1619 27.9221 15.4033 27.7412 15.6064C27.5602 15.8095 27.3454 15.9702 27.1091 16.0793C26.8729 16.1884 26.6199 16.2438 26.3646 16.2422V16.2064Z"
          stroke="white" stroke-width="2.3" stroke-linecap="round" stroke-linejoin="round"/>
</svg>
