<svg width="44" height="44" viewBox="0 0 44 44" fill="none" xmlns="http://www.w3.org/2000/svg">
<g clip-path="url(#clip0_21_940)">
<path fill-rule="evenodd" clip-rule="evenodd" d="M28.9936 10.1019C28.9936 9.54308 28.5407 9.09002 27.9817 9.09002H27.9252C28.4739 7.33278 30.1131 6.0713 32.0376 6.0713C32.5965 6.0713 33.0495 5.61824 33.0495 5.05939V1.01191C33.0495 0.453062 32.5966 0 32.0376 0H14.8694C14.4612 0 14.1104 0.242171 13.9504 0.590218H10.8218C10.263 0.590218 9.80993 1.04328 9.80993 1.60213V5.64969C9.80993 6.20854 10.2629 6.6616 10.8218 6.6616H13.8993C14.0231 7.08072 14.4102 7.38683 14.8693 7.38683H15.8638C15.9026 8.10337 15.8872 9.21128 15.5918 10.4206C14.9315 13.1238 13.2145 14.9762 10.4888 15.9263C9.9611 16.1101 9.68232 16.6871 9.86622 17.2148C10.0117 17.6323 10.4032 17.894 10.8217 17.894C10.9322 17.894 11.0446 17.8757 11.1548 17.8373C15.4086 16.3548 16.9846 13.2471 17.5578 10.901C17.8892 9.54394 17.9269 8.29287 17.8902 7.4212C18.9988 7.57237 19.9815 8.21844 20.5707 9.14562C20.1729 9.28192 19.8866 9.65824 19.8866 10.1022V24.2685H12.1331C9.99195 24.2685 8.25 26.0105 8.25 28.1516V40.1171C8.25 42.2582 9.99195 44.0002 12.1331 44.0002H32.6996C34.8407 44.0002 36.5827 42.2582 36.5827 40.1171V22.9403C36.5827 18.3972 33.3069 14.6054 28.9936 13.8014V10.1019ZM26.9698 11.1138V13.6435H21.9104V11.1138H26.9698ZM13.8575 2.61396V4.63769H11.8338V2.61396H13.8575ZM15.8813 5.363V2.02374H31.0258V4.12783C28.4393 4.54282 26.3657 6.52324 25.8364 9.09011H22.7961C21.953 6.88891 19.7968 5.363 17.3907 5.363H15.8813ZM12.1332 41.9762C11.1079 41.9762 10.2738 41.1421 10.2738 40.1168V39.8681H15.679C16.2379 39.8681 16.6909 39.4152 16.6909 38.8562C16.6909 38.2973 16.2379 37.8443 15.679 37.8443H10.2738V28.1514C10.2738 27.1261 11.1079 26.292 12.1332 26.292H20.8986C21.4574 26.292 21.9105 25.839 21.9105 25.2801V15.6672H27.2861C31.2964 15.6672 34.559 18.9298 34.559 22.9401V37.8443H28.8292C28.2704 37.8443 27.8173 38.2973 27.8173 38.8562C27.8173 39.4152 28.2703 39.8681 28.8292 39.8681H34.559V40.1168C34.5589 41.1421 33.7248 41.9762 32.6996 41.9762H12.1332Z" fill="white"/>
<path d="M27.9252 9.09002L27.5911 8.9857L27.4492 9.44002H27.9252V9.09002ZM33.0495 1.01191H32.6995H33.0495ZM13.9504 0.590218V0.940218H14.1747L14.2684 0.73642L13.9504 0.590218ZM13.8993 6.6616L14.235 6.56249L14.1609 6.3116H13.8993V6.6616ZM15.8638 7.38683L16.2133 7.36788L16.1953 7.03683H15.8638V7.38683ZM15.5918 10.4206L15.9318 10.5036L15.9318 10.5036L15.5918 10.4206ZM10.4888 15.9263L10.6039 16.2568L10.6039 16.2568L10.4888 15.9263ZM9.86622 17.2148L9.53572 17.33L9.53572 17.33L9.86622 17.2148ZM11.1548 17.8373L11.2698 18.1679L11.27 18.1678L11.1548 17.8373ZM17.5578 10.901L17.8978 10.984L17.8978 10.984L17.5578 10.901ZM17.8902 7.4212L17.9375 7.07441L17.5229 7.01788L17.5405 7.43593L17.8902 7.4212ZM20.5707 9.14562L20.6841 9.47673L21.1043 9.33277L20.8661 8.95791L20.5707 9.14562ZM19.8866 24.2685V24.6185H20.2366V24.2685H19.8866ZM28.9936 13.8014H28.6436V14.0922L28.9295 14.1454L28.9936 13.8014ZM26.9698 11.1138H27.3198V10.7638H26.9698V11.1138ZM26.9698 13.6435V13.9935H27.3198V13.6435H26.9698ZM21.9104 13.6435H21.5604V13.9935H21.9104V13.6435ZM21.9104 11.1138V10.7638H21.5604V11.1138H21.9104ZM13.8575 2.61396H14.2075V2.26396H13.8575V2.61396ZM13.8575 4.63769V4.98769H14.2075V4.63769H13.8575ZM11.8338 4.63769H11.4838V4.98769H11.8338V4.63769ZM11.8338 2.61396V2.26396H11.4838V2.61396H11.8338ZM15.8813 5.363H15.5313V5.713H15.8813V5.363ZM15.8813 2.02374V1.67374H15.5313V2.02374H15.8813ZM31.0258 2.02374H31.3758V1.67374H31.0258V2.02374ZM31.0258 4.12783L31.0812 4.47341L31.3758 4.42615V4.12783H31.0258ZM25.8364 9.09011V9.44011H26.1216L26.1792 9.16079L25.8364 9.09011ZM22.7961 9.09011L22.4693 9.2153L22.5554 9.44011H22.7961V9.09011ZM10.2738 39.8681V39.5181H9.92382V39.8681H10.2738ZM10.2738 37.8443H9.92382V38.1943H10.2738V37.8443ZM21.9105 15.6672V15.3172H21.5605V15.6672H21.9105ZM34.559 37.8443V38.1943H34.909V37.8443H34.559ZM34.559 39.8681H34.909V39.5181H34.559V39.8681ZM34.559 40.1168L34.909 40.1169V40.1168H34.559ZM29.3436 10.1019C29.3436 9.3498 28.734 8.74002 27.9817 8.74002V9.44002C28.3473 9.44002 28.6436 9.73636 28.6436 10.1019H29.3436ZM27.9817 8.74002H27.9252V9.44002H27.9817V8.74002ZM28.2593 9.19434C28.7633 7.58009 30.2695 6.4213 32.0376 6.4213V5.7213C29.9567 5.7213 28.1844 7.08546 27.5911 8.9857L28.2593 9.19434ZM32.0376 6.4213C32.7898 6.4213 33.3995 5.81154 33.3995 5.05939H32.6995C32.6995 5.42494 32.4032 5.7213 32.0376 5.7213V6.4213ZM33.3995 5.05939V1.01191H32.6995V5.05939H33.3995ZM33.3995 1.01191C33.3995 0.259781 32.7899 -0.35 32.0376 -0.35V0.35C32.4032 0.35 32.6995 0.646342 32.6995 1.01191H33.3995ZM32.0376 -0.35H14.8694V0.35H32.0376V-0.35ZM14.8694 -0.35C14.3188 -0.35 13.8471 -0.0229998 13.6324 0.444015L14.2684 0.73642C14.3737 0.507343 14.6036 0.35 14.8694 0.35V-0.35ZM13.9504 0.240218H10.8218V0.940218H13.9504V0.240218ZM10.8218 0.240218C10.0697 0.240218 9.45993 0.84998 9.45993 1.60213H10.1599C10.1599 1.23658 10.4563 0.940218 10.8218 0.940218V0.240218ZM9.45993 1.60213V5.64969H10.1599V1.60213H9.45993ZM9.45993 5.64969C9.45993 6.40182 10.0696 7.0116 10.8218 7.0116V6.3116C10.4562 6.3116 10.1599 6.01526 10.1599 5.64969H9.45993ZM10.8218 7.0116H13.8993V6.3116H10.8218V7.0116ZM13.5637 6.76072C13.73 7.32412 14.2505 7.73683 14.8693 7.73683V7.03683C14.57 7.03683 14.3162 6.83732 14.235 6.56249L13.5637 6.76072ZM14.8693 7.73683H15.8638V7.03683H14.8693V7.73683ZM15.5143 7.40577C15.5519 8.09994 15.5366 9.17146 15.2518 10.3375L15.9318 10.5036C16.2377 9.2511 16.2533 8.10681 16.2133 7.36788L15.5143 7.40577ZM15.2518 10.3375C14.6209 12.9204 12.9923 14.683 10.3736 15.5958L10.6039 16.2568C13.4367 15.2694 15.2421 13.3272 15.9318 10.5036L15.2518 10.3375ZM10.3736 15.5957C9.66337 15.8432 9.28821 16.6197 9.53572 17.33L10.1967 17.0996C10.0764 16.7544 10.2588 16.377 10.6039 16.2568L10.3736 15.5957ZM9.53572 17.33C9.73171 17.8924 10.259 18.244 10.8217 18.244V17.544C10.5475 17.544 10.2917 17.3722 10.1967 17.0996L9.53572 17.33ZM10.8217 18.244C10.971 18.244 11.1223 18.2192 11.2698 18.1679L11.0398 17.5068C10.9669 17.5321 10.8934 17.544 10.8217 17.544V18.244ZM11.27 18.1678C15.667 16.6354 17.3053 13.4092 17.8978 10.984L17.2178 10.8179C16.6639 13.085 15.1502 16.0742 11.0396 17.5068L11.27 18.1678ZM17.8978 10.984C18.2392 9.58624 18.2775 8.30058 18.2399 7.40648L17.5405 7.43593C17.5763 8.28516 17.5393 9.50165 17.2178 10.8179L17.8978 10.984ZM17.8429 7.768C18.8473 7.90495 19.7402 8.49128 20.2753 9.33334L20.8661 8.95791C20.2228 7.94561 19.1503 7.23979 17.9375 7.07441L17.8429 7.768ZM20.4572 8.81452C19.9228 8.99763 19.5366 9.50359 19.5366 10.1022H20.2366C20.2366 9.81289 20.4229 9.56621 20.6841 9.47673L20.4572 8.81452ZM19.5366 10.1022V24.2685H20.2366V10.1022H19.5366ZM19.8866 23.9185H12.1331V24.6185H19.8866V23.9185ZM12.1331 23.9185C9.79865 23.9185 7.9 25.8172 7.9 28.1516H8.6C8.6 26.2038 10.1852 24.6185 12.1331 24.6185V23.9185ZM7.9 28.1516V40.1171H8.6V28.1516H7.9ZM7.9 40.1171C7.9 42.4515 9.79865 44.3502 12.1331 44.3502V43.6502C10.1852 43.6502 8.6 42.0649 8.6 40.1171H7.9ZM12.1331 44.3502H32.6996V43.6502H12.1331V44.3502ZM32.6996 44.3502C35.034 44.3502 36.9327 42.4515 36.9327 40.1171H36.2327C36.2327 42.0649 34.6474 43.6502 32.6996 43.6502V44.3502ZM36.9327 40.1171V22.9403H36.2327V40.1171H36.9327ZM36.9327 22.9403C36.9327 18.2253 33.5334 14.2916 29.0578 13.4573L28.9295 14.1454C33.0804 14.9192 36.2327 18.5691 36.2327 22.9403H36.9327ZM29.3436 13.8014V10.1019H28.6436V13.8014H29.3436ZM26.6198 11.1138V13.6435H27.3198V11.1138H26.6198ZM26.9698 13.2935H21.9104V13.9935H26.9698V13.2935ZM22.2604 13.6435V11.1138H21.5604V13.6435H22.2604ZM21.9104 11.4638H26.9698V10.7638H21.9104V11.4638ZM13.5075 2.61396V4.63769H14.2075V2.61396H13.5075ZM13.8575 4.28769H11.8338V4.98769H13.8575V4.28769ZM12.1838 4.63769V2.61396H11.4838V4.63769H12.1838ZM11.8338 2.96396H13.8575V2.26396H11.8338V2.96396ZM16.2313 5.363V2.02374H15.5313V5.363H16.2313ZM15.8813 2.37374H31.0258V1.67374H15.8813V2.37374ZM30.6758 2.02374V4.12783H31.3758V2.02374H30.6758ZM30.9704 3.78225C28.2405 4.22024 26.0523 6.3099 25.4936 9.01942L26.1792 9.16079C26.679 6.73659 28.6381 4.8654 31.0812 4.47341L30.9704 3.78225ZM25.8364 8.74011H22.7961V9.44011H25.8364V8.74011ZM23.1229 8.96492C22.2289 6.63079 19.9444 5.013 17.3907 5.013V5.713C19.6492 5.713 21.677 7.14703 22.4693 9.2153L23.1229 8.96492ZM17.3907 5.013H15.8813V5.713H17.3907V5.013ZM12.1332 41.6262C11.3012 41.6262 10.6238 40.9488 10.6238 40.1168H9.92382C9.92382 41.3354 10.9146 42.3262 12.1332 42.3262V41.6262ZM10.6238 40.1168V39.8681H9.92382V40.1168H10.6238ZM10.2738 40.2181H15.679V39.5181H10.2738V40.2181ZM15.679 40.2181C16.4312 40.2181 17.0409 39.6085 17.0409 38.8562H16.3409C16.3409 39.2218 16.0446 39.5181 15.679 39.5181V40.2181ZM17.0409 38.8562C17.0409 38.104 16.4312 37.4943 15.679 37.4943V38.1943C16.0446 38.1943 16.3409 38.4906 16.3409 38.8562H17.0409ZM15.679 37.4943H10.2738V38.1943H15.679V37.4943ZM10.6238 37.8443V28.1514H9.92382V37.8443H10.6238ZM10.6238 28.1514C10.6238 27.3194 11.3012 26.642 12.1332 26.642V25.942C10.9146 25.942 9.92382 26.9328 9.92382 28.1514H10.6238ZM12.1332 26.642H20.8986V25.942H12.1332V26.642ZM20.8986 26.642C21.6507 26.642 22.2605 26.0324 22.2605 25.2801H21.5605C21.5605 25.6457 21.2642 25.942 20.8986 25.942V26.642ZM22.2605 25.2801V15.6672H21.5605V25.2801H22.2605ZM21.9105 16.0172H27.2861V15.3172H21.9105V16.0172ZM27.2861 16.0172C31.1031 16.0172 34.209 19.1231 34.209 22.9401H34.909C34.909 18.7365 31.4897 15.3172 27.2861 15.3172V16.0172ZM34.209 22.9401V37.8443H34.909V22.9401H34.209ZM34.559 37.4943H28.8292V38.1943H34.559V37.4943ZM28.8292 37.4943C28.0771 37.4943 27.4673 38.104 27.4673 38.8562H28.1673C28.1673 38.4906 28.4637 38.1943 28.8292 38.1943V37.4943ZM27.4673 38.8562C27.4673 39.6085 28.077 40.2181 28.8292 40.2181V39.5181C28.4636 39.5181 28.1673 39.2219 28.1673 38.8562H27.4673ZM28.8292 40.2181H34.559V39.5181H28.8292V40.2181ZM34.209 39.8681V40.1168H34.909V39.8681H34.209ZM34.209 40.1168C34.209 40.9488 33.5315 41.6262 32.6996 41.6262V42.3262C33.9181 42.3262 34.9089 41.3354 34.909 40.1169L34.209 40.1168ZM32.6996 41.6262H12.1332V42.3262H32.6996V41.6262Z" fill="white"/>
<path d="M31.5244 23.9515C32.0833 23.9515 32.5363 23.4984 32.5363 22.9396C32.5363 20.0452 30.1816 17.6904 27.2872 17.6904C26.7283 17.6904 26.2753 18.1435 26.2753 18.7023C26.2753 19.2612 26.7282 19.7143 27.2872 19.7143C29.0656 19.7143 30.5125 21.1611 30.5125 22.9396C30.5125 23.4984 30.9656 23.9515 31.5244 23.9515Z" fill="white"/>
<path d="M19.5576 37.8442C18.9987 37.8442 18.5457 38.2972 18.5457 38.8562C18.5457 39.4151 18.9986 39.8681 19.5576 39.8681H19.6925C20.2513 39.8681 20.7044 39.4151 20.7044 38.8562C20.7044 38.2972 20.2513 37.8442 19.6925 37.8442H19.5576Z" fill="white"/>
</g>
<defs>
<clipPath id="clip0_21_940">
<rect width="44" height="44" fill="white"/>
</clipPath>
</defs>
</svg>
