<svg width="44" height="44" viewBox="0 0 44 44" fill="none" xmlns="http://www.w3.org/2000/svg">
<g clip-path="url(#clip0_13_4559)">
<path d="M17.4027 14.3474C17.794 13.96 18.1046 13.499 18.3165 12.991C18.5285 12.4831 18.6376 11.9383 18.6376 11.388C18.6376 10.8377 18.5285 10.2928 18.3165 9.78489C18.1046 9.27694 17.794 8.81595 17.4027 8.42852L12.9517 3.98331C12.5638 3.59253 12.1022 3.28234 11.5936 3.07066C11.085 2.85898 10.5395 2.75 9.98848 2.75C9.43748 2.75 8.89194 2.85898 8.38334 3.07066C7.87473 3.28234 7.41315 3.59253 7.02521 3.98331L4.60622 6.39919C3.57475 7.42283 2.93031 8.7718 2.78256 10.2165C2.63481 11.6613 2.99289 13.1125 3.79585 14.3232C10.9785 25.127 20.2466 34.3914 31.0579 41.5743C32.2659 42.3754 33.7135 42.736 35.1567 42.5952C36.5999 42.4543 37.9503 41.8207 38.9801 40.8012L41.3991 38.3853C42.1842 37.5976 42.625 36.5313 42.625 35.4199C42.625 34.3084 42.1842 33.2421 41.3991 32.4544L36.9482 28.0092C36.1594 27.2251 35.0918 26.7849 33.9789 26.7849C32.8659 26.7849 31.7983 27.2251 31.0095 28.0092L29.5581 29.4466C24.5682 25.3654 19.9906 20.8058 15.8908 15.8332L17.4027 14.3474Z" stroke="white" stroke-width="3" stroke-linecap="round" stroke-linejoin="round"/>
</g>
<defs>
<clipPath id="clip0_13_4559">
<rect width="44" height="44" fill="white"/>
</clipPath>
</defs>
</svg>
