<svg width="44" height="44" viewBox="0 0 44 44" fill="none" xmlns="http://www.w3.org/2000/svg">
<path fill-rule="evenodd" clip-rule="evenodd" d="M40.3038 28.61V28.7077C38.9353 32.3689 36.4884 35.5292 33.2854 37.7693C30.0459 40.035 26.1893 41.25 22.2373 41.25C18.2854 41.25 14.4288 40.035 11.1892 37.7693C7.95093 35.5044 5.48485 32.1997 4.12517 28.4838C2.60832 24.2947 2.60827 19.7056 4.12505 15.5165C5.4927 11.8435 7.98147 8.4742 11.1892 6.23074C14.4288 3.96503 18.2854 2.75 22.2373 2.75C26.1893 2.75 30.0459 3.96503 33.2854 6.23074C36.5249 8.49641 38.9911 11.7034 40.3502 15.4179C41.8671 19.6071 41.8664 24.2948 40.3494 28.484L40.3038 28.61ZM15.6303 37.3526C15.6303 37.3526 13.9839 36.5388 12.7046 35.8176C10.6447 34.4129 8.92274 32.5672 7.66352 30.4141L6.99186 29.2656H11.7162L11.8657 29.8344C12.3217 31.5685 12.9733 33.2449 13.8082 34.8314C14.2244 35.6223 14.6037 36.1801 14.8777 36.5388C15.0147 36.7182 15.1254 36.8479 15.2012 36.9321C15.2391 36.9742 15.2683 37.005 15.2877 37.0249L15.3093 37.0467L15.3143 37.0517L15.3154 37.0527L15.6303 37.3526ZM16.05 6.1875C16.05 6.1875 15.3388 6.72523 14.8425 7.3903C14.5513 7.78061 14.1577 8.36975 13.7518 9.16139C12.9371 10.7502 12.3051 12.4263 11.8678 14.1576L11.7291 14.7344H6.99948L7.66162 13.5892C8.90272 11.4427 10.6027 9.59747 12.6397 8.18569C13.6515 7.48446 14.2797 7.08644 14.6563 6.86319C14.8446 6.75153 14.9704 6.68328 15.0503 6.64252C15.0902 6.62213 15.1188 6.60853 15.1381 6.59978C15.1573 6.59103 16.05 6.1875 16.05 6.1875ZM5.94019 26.2094L6.09027 26.7773H11.2663L11.1635 25.9231C10.85 23.3171 10.85 20.6829 11.1635 18.0769L11.2663 17.2227H6.09027L5.94019 17.7906C5.21105 20.5494 5.21105 23.4506 5.94019 26.2094ZM19.7411 38.0702L20.9543 38.9614V29.2656H14.3635L14.5763 30.1985C15.2971 33.3583 17.1306 36.1527 19.7411 38.0702ZM13.7947 26.7773H20.9543V17.2227H13.7947L13.7024 17.8794C13.3183 20.613 13.3183 23.387 13.7024 26.1206L13.7947 26.7773ZM14.3635 14.7344H20.9543V5.03862L19.7411 5.92978C17.1306 7.84734 15.2971 10.6417 14.5763 13.8015L14.3635 14.7344ZM32.6782 14.7344H37.4026L36.7309 13.5859C35.4717 11.4328 33.9224 9.58706 31.8625 8.18242C30.8408 7.48571 30.0568 6.94468 29.3453 6.60863C28.6338 6.27258 28.1875 6.1875 28.1875 6.1875C28.1875 6.1875 29.6645 7.41688 30.5863 9.16858C31.4211 10.7551 32.0728 12.4315 32.5287 14.1656L32.6782 14.7344ZM24.6534 5.92978L23.4402 5.03862V14.7344H30.0309L29.8181 13.8015C29.0973 10.6417 27.2639 7.84734 24.6534 5.92978ZM30.0309 29.2656H23.4402V38.9614L24.6534 38.0702C27.2639 36.1527 29.0973 33.3583 29.8181 30.1985L30.0309 29.2656ZM23.4402 26.7773H30.5998L30.692 26.1206C31.0761 23.387 31.0761 20.613 30.692 17.8794L30.5998 17.2227H23.4402V26.7773ZM28.1875 37.8125C28.1875 37.8125 30.4027 36.6796 31.7432 35.8219C31.7458 35.8202 31.7499 35.8176 31.7499 35.8176C33.8099 34.4129 35.5318 32.5672 36.7911 30.4141L37.4627 29.2656H32.7384L32.5889 29.8344C32.1336 31.5661 31.483 33.2403 30.6498 34.8249C29.8166 36.4094 28.1875 37.8125 28.1875 37.8125ZM33.1263 26.7773H38.3042L38.4542 26.2094C39.1834 23.4506 39.1834 20.5494 38.4542 17.7906L38.3042 17.2227H33.1267L33.2311 18.0782C33.3898 19.379 33.4682 20.6889 33.4661 21.9993L33.4661 22.0017C33.4688 23.3119 33.3904 24.621 33.2311 25.9215L33.1263 26.7773Z" fill="white"/>
</svg>
