<svg width="44" height="44" viewBox="0 0 44 44" fill="none" xmlns="http://www.w3.org/2000/svg">
    <g clip-path="url(#clip0_14_4711)">
        <path class="fill-color-text" fill-rule="evenodd" clip-rule="evenodd"
              d="M33.4294 18.7637H11.4503L11.4415 18.7638C11.0179 18.7665 10.599 18.8529 10.209 19.0182C9.81896 19.1835 9.46546 19.4242 9.16885 19.7266C8.87224 20.0291 8.63838 20.3872 8.48073 20.7803C8.32435 21.1704 8.24602 21.5873 8.25016 22.0074V40.7564C8.24602 41.1765 8.32435 41.5934 8.48073 41.9834C8.63838 42.3765 8.87223 42.7347 9.16885 43.0371C9.46547 43.3395 9.81897 43.5803 10.209 43.7455C10.599 43.9108 11.0179 43.9973 11.4415 44L33.4117 44.0001L33.4294 43.9999C33.8512 43.9944 34.2679 43.906 34.6555 43.7395C35.0431 43.573 35.3942 43.3318 35.6886 43.0297C35.983 42.7275 36.215 42.3703 36.3713 41.9785C36.5264 41.5899 36.604 41.1747 36.5999 40.7564V22.0073C36.604 21.589 36.5264 21.1739 36.3713 20.7852C36.215 20.3934 35.983 20.0362 35.6886 19.7341C35.3942 19.4319 35.0431 19.1907 34.6555 19.0242C34.2679 18.8578 33.8512 18.7692 33.4294 18.7637ZM22.4353 24.3946V24.3946L22.4251 24.3946C21.5079 24.395 20.611 24.6656 19.8467 25.1728C19.0823 25.6799 18.4844 26.401 18.1275 27.246C17.7706 28.091 17.6706 29.0224 17.84 29.9239C18.0094 30.8255 18.4407 31.6571 19.0799 32.3149C19.6266 32.8774 20.3048 33.2916 21.0503 33.5217V37.5792C21.0503 38.3386 21.6659 38.9542 22.4253 38.9542C23.1847 38.9542 23.8003 38.3386 23.8003 37.5792V33.5229C23.9077 33.4898 24.0142 33.4527 24.1195 33.4118C24.9744 33.0791 25.7123 32.502 26.2411 31.7525C26.7698 31.0029 27.066 30.1142 27.0926 29.1973L27.0926 29.1973L27.0928 29.1871C27.1063 28.5654 26.996 27.9473 26.7683 27.3686C26.5407 26.7899 26.2003 26.2622 25.7669 25.8163C25.3335 25.3703 24.8158 25.015 24.2439 24.7709C23.6719 24.5269 23.0571 24.3989 22.4353 24.3946ZM21.367 27.4643C21.6796 27.2569 22.0462 27.1457 22.4212 27.1446C22.6768 27.147 22.9294 27.1999 23.1645 27.3003C23.4012 27.4013 23.6155 27.5483 23.7948 27.7328C23.9741 27.9174 24.115 28.1357 24.2092 28.3752C24.3028 28.6131 24.3484 28.8671 24.3436 29.1226C24.3317 29.4975 24.2102 29.8607 23.9939 30.1673C23.7767 30.4752 23.4736 30.7123 23.1224 30.8489C22.7712 30.9856 22.3875 31.0157 22.0193 30.9355C21.6511 30.8554 21.3147 30.6685 21.0521 30.3983C20.7894 30.1281 20.6123 29.7864 20.5427 29.4161C20.4731 29.0457 20.5142 28.6631 20.6608 28.316C20.8074 27.9688 21.053 27.6726 21.367 27.4643Z"
              fill="white"/>
        <path class="stroke-color-text" d="M14.1348 19.8054V11.0256C14.1348 5.69332 16.2582 1.375 22.4852 1.375C28.7121 1.375 30.8355 5.69332 30.8355 11.0256V19.8054"
              stroke="white" stroke-width="2" stroke-linecap="round" stroke-linejoin="round"/>
    </g>
    <defs>
        <clipPath id="clip0_14_4711">
            <rect class="fill-color-text" width="44" height="44" fill="white"/>
        </clipPath>
    </defs>
</svg>
