<svg width="44" height="44" viewBox="0 0 44 44" fill="none" xmlns="http://www.w3.org/2000/svg">
    <path class="stroke-color-text" d="M39.2586 29.6108C37.6974 32.6938 35.2974 35.2869 32.3274 37.0997C29.3573 38.9125 25.9346 39.8734 22.4425 39.8747C19.5221 39.8822 16.6412 39.2088 14.0345 37.9093L2.75 39.4379L5.62643 29.6108C4.30976 27.0381 3.62744 24.1947 3.63505 21.3124C3.63641 17.8658 4.60997 14.4877 6.4467 11.5564C8.28343 8.62503 10.9108 6.2563 14.0345 4.71548C16.6412 3.41597 19.5221 2.74255 22.4425 2.75006H23.5488C28.1607 3.00118 32.5167 4.92242 35.7828 8.14593C39.0489 11.3694 40.9955 15.6687 41.2499 20.2205V21.3124C41.2576 24.1947 40.5752 27.0381 39.2586 29.6108Z"
          stroke="white" stroke-width="3" stroke-linecap="round" stroke-linejoin="round"/>
</svg>
