<svg width="56" height="56" viewBox="0 0 56 56" fill="none" xmlns="http://www.w3.org/2000/svg">
    <g opacity="0.3" clip-path="url(#clip0_1479_14670)">
        <path fill-rule="evenodd" clip-rule="evenodd"
              d="M7.00002 13.0666C6.13364 13.0666 5.30275 13.4108 4.69013 14.0234C4.07752 14.636 3.73335 15.4669 3.73335 16.3333V39.6666C3.73335 40.533 4.07752 41.3639 4.69013 41.9765C5.30275 42.5891 6.13364 42.9333 7.00002 42.9333H32.6667C33.5331 42.9333 34.3639 42.5891 34.9766 41.9765C35.5892 41.3639 35.9333 40.533 35.9333 39.6666V37.9132L11.0868 13.0666H7.00002ZM2.71024 12.0435C3.84796 10.9058 5.39104 10.2666 7.00002 10.2666H11.6667C12.038 10.2666 12.3941 10.4141 12.6566 10.6767L38.3233 36.3433C38.5858 36.6059 38.7333 36.962 38.7333 37.3333V39.6666C38.7333 41.2756 38.0942 42.8187 36.9565 43.9564C35.8187 45.0941 34.2757 45.7333 32.6667 45.7333H7.00002C5.39104 45.7333 3.84796 45.0941 2.71024 43.9564C1.57251 42.8187 0.93335 41.2756 0.93335 39.6666V16.3333C0.93335 14.7243 1.57251 13.1812 2.71024 12.0435ZM23.4733 11.6666C23.4733 10.8934 24.1001 10.2666 24.8733 10.2666H32.6667C34.2757 10.2666 35.8187 10.9058 36.9565 12.0435C38.0942 13.1812 38.7333 14.7243 38.7333 16.3333V23.5467L39.8129 24.6263L52.8462 15.1989C53.2723 14.8907 53.8352 14.8473 54.3036 15.0865C54.7719 15.3258 55.0667 15.8073 55.0667 16.3333V39.6666C55.0667 40.4398 54.4399 41.0666 53.6667 41.0666C52.8935 41.0666 52.2667 40.4398 52.2667 39.6666V19.0738L40.4872 27.5943C39.9301 27.9972 39.1629 27.936 38.6767 27.4499L36.3434 25.1166C36.0808 24.854 35.9333 24.4979 35.9333 24.1266V16.3333C35.9333 15.4669 35.5892 14.636 34.9766 14.0234C34.3639 13.4108 33.5331 13.0666 32.6667 13.0666H24.8733C24.1001 13.0666 23.4733 12.4398 23.4733 11.6666Z"
              fill="white"/>
        <path fill-rule="evenodd" clip-rule="evenodd"
              d="M1.3434 1.3434C1.89013 0.796666 2.77656 0.796666 3.3233 1.3434L54.6566 52.6767C55.2034 53.2235 55.2034 54.1099 54.6566 54.6566C54.1099 55.2034 53.2235 55.2034 52.6767 54.6566L1.3434 3.3233C0.796666 2.77656 0.796666 1.89013 1.3434 1.3434Z"
              fill="white"/>
    </g>
    <defs>
        <clipPath id="clip0_1479_14670">
            <rect width="56" height="56" fill="white"/>
        </clipPath>
    </defs>
</svg>
