<svg width="121" height="120" viewBox="0 0 121 120" fill="none" xmlns="http://www.w3.org/2000/svg">
    <g clip-path="url(#clip0_1479_14648)">
        <path class="fill-color-text-default" fill-rule="evenodd" clip-rule="evenodd"
            d="M15.5001 28.75C13.8425 28.75 12.2528 29.4085 11.0807 30.5806C9.9086 31.7527 9.25012 33.3424 9.25012 35V85C9.25012 86.6576 9.9086 88.2473 11.0807 89.4194C12.2528 90.5915 13.8425 91.25 15.5001 91.25H70.5001C72.1577 91.25 73.7474 90.5915 74.9195 89.4194C76.0916 88.2473 76.7501 86.6576 76.7501 85V81.5533L23.9468 28.75H15.5001ZM5.7774 25.2773C8.35603 22.6987 11.8534 21.25 15.5001 21.25H25.5001C26.4947 21.25 27.4485 21.6451 28.1518 22.3483L83.1518 77.3483C83.855 78.0516 84.2501 79.0054 84.2501 80V85C84.2501 88.6467 82.8015 92.1441 80.2228 94.7227C77.6442 97.3013 74.1469 98.75 70.5001 98.75H15.5001C11.8534 98.75 8.35603 97.3013 5.7774 94.7227C3.19878 92.1441 1.75012 88.6467 1.75012 85V35C1.75012 31.3533 3.19878 27.8559 5.7774 25.2773ZM50.0501 25C50.0501 22.9289 51.7291 21.25 53.8001 21.25H70.5001C74.1469 21.25 77.6442 22.6987 80.2228 25.2773C82.8015 27.8559 84.2501 31.3533 84.2501 35V50.1467L85.8919 51.7884L113.302 31.9616C114.444 31.1359 115.952 31.0196 117.206 31.6605C118.461 32.3014 119.25 33.5913 119.25 35V85C119.25 87.0711 117.571 88.75 115.5 88.75C113.429 88.75 111.75 87.0711 111.75 85V42.3407L87.6979 59.7384C86.2058 60.8178 84.1507 60.6539 82.8485 59.3516L77.8485 54.3517C77.1452 53.6484 76.7501 52.6946 76.7501 51.7V35C76.7501 33.3424 76.0916 31.7527 74.9195 30.5806C73.7474 29.4085 72.1577 28.75 70.5001 28.75H53.8001C51.7291 28.75 50.0501 27.0711 50.0501 25Z"
            fill="#BBBBBB" stroke="white" stroke-linecap="round" stroke-linejoin="round" />
        <path class="fill-color-text-default" fill-rule="evenodd" clip-rule="evenodd"
            d="M6.59847 2.34835C8.06294 0.883883 10.4373 0.883883 11.9018 2.34835L121.902 112.348C123.366 113.813 123.366 116.187 121.902 117.652C120.437 119.116 118.063 119.116 116.598 117.652L6.59847 7.65165C5.13401 6.18718 5.13401 3.81282 6.59847 2.34835Z"
            fill="#BBBBBB" />
    </g>
    <defs>
        <clipPath id="clip0_1479_14648">
            <rect width="120" height="120" fill="white" transform="translate(0.5)" />
        </clipPath>
    </defs>
</svg>