<svg class="fill-color-text " width="489" height="42" viewBox="0 0 489 42" fill="none"
  xmlns="http://www.w3.org/2000/svg">
  <g clip-path="url(#clip0_3742_57707)">
    <path class="fill-color-text " opacity="0.5"
      d="M8.24 38H5.4V27.54L2.82 29.52L1.82 27.54L5.78 24.66H8.24V38Z" fill="#494949" />
    <rect class="fill-color-text stroke-color-text" opacity="0.4" x="3" width="2" height="10" rx="1"
      fill="#888888" />
    <rect class="fill-color-text" opacity="0.4" x="243" width="2" height="10" rx="1" fill="#888888" />
    <rect class="fill-color-text" opacity="0.4" x="483" width="2" height="10" rx="1" fill="#888888" />
    <path class="fill-color-text"
      d="M248.72 38H239.98V36.36L242.74 33.5C242.807 33.4333 243.033 33.2067 243.42 32.82C243.82 32.4333 244.1 32.16 244.26 32C244.42 31.8267 244.66 31.5533 244.98 31.18C245.313 30.7933 245.553 30.4733 245.7 30.22C245.86 29.9533 246.007 29.6467 246.14 29.3C246.273 28.94 246.34 28.6067 246.34 28.3C246.34 27.6333 246.093 27.1067 245.6 26.72C245.107 26.32 244.513 26.12 243.82 26.12C242.86 26.12 241.767 26.42 240.54 27.02L240.44 25.3C241.773 24.74 242.987 24.46 244.08 24.46C245.36 24.46 246.413 24.7667 247.24 25.38C248.08 25.98 248.5 26.8933 248.5 28.12C248.5 28.5733 248.413 29.0333 248.24 29.5C248.08 29.9533 247.827 30.4133 247.48 30.88C247.147 31.3467 246.84 31.74 246.56 32.06C246.293 32.3667 245.92 32.7667 245.44 33.26C244.96 33.7533 244.64 34.0933 244.48 34.28L242.54 36.38H248.72V38Z"
      fill="#494949" />
    <path class="fill-color-text" opacity="0.5"
      d="M477.94 37.7L478.06 35.98C479.033 36.38 480.12 36.58 481.32 36.58C482.28 36.58 483.067 36.3667 483.68 35.94C484.307 35.5 484.62 34.8467 484.62 33.98C484.62 33.1933 484.32 32.6333 483.72 32.3C483.12 31.9667 482.36 31.8 481.44 31.8H479.68V30.3H481.18C483.34 30.3 484.42 29.54 484.42 28.02C484.42 27.3267 484.133 26.8267 483.56 26.52C483 26.2 482.307 26.04 481.48 26.04C480.467 26.04 479.447 26.2533 478.42 26.68L478.3 25.04C479.433 24.6533 480.593 24.46 481.78 24.46C482.633 24.46 483.4 24.56 484.08 24.76C484.76 24.9467 485.34 25.3067 485.82 25.84C486.313 26.36 486.56 27.0267 486.56 27.84C486.56 28.6667 486.313 29.3467 485.82 29.88C485.34 30.4133 484.68 30.7867 483.84 31C484.693 31.12 485.4 31.4467 485.96 31.98C486.533 32.5133 486.82 33.1867 486.82 34C486.82 34.9467 486.547 35.7467 486 36.4C485.467 37.0533 484.8 37.52 484 37.8C483.2 38.08 482.313 38.22 481.34 38.22C480.1 38.22 478.967 38.0467 477.94 37.7Z"
      fill="#494949" />
  </g>
  <defs>
    <clipPath id="clip0_3742_57707">
      <rect class="fill-color-text" width="489" height="42" fill="white" />
    </clipPath>
  </defs>
</svg>