<svg class="fill-color-text" width="489" height="46" viewBox="0 0 489 46" fill="none"
  xmlns="http://www.w3.org/2000/svg">
  <rect class="fill-color-text" opacity="0.4" x="0.175781" width="2" height="10" rx="1"
    fill="#888888" />
  <rect class="fill-color-text" opacity="0.4" x="30.1758" width="2" height="10" rx="1"
    fill="#888888" />
  <rect class="fill-color-text" opacity="0.4" x="60.1758" width="2" height="10" rx="1"
    fill="#888888" />
  <rect class="fill-color-text" opacity="0.4" x="90.1758" width="2" height="10" rx="1"
    fill="#888888" />
  <rect class="fill-color-text" opacity="0.4" x="120.176" width="2" height="10" rx="1"
    fill="#888888" />
  <rect class="fill-color-text" opacity="0.4" x="150.176" width="2" height="10" rx="1"
    fill="#888888" />
  <rect class="fill-color-text" opacity="0.4" x="180.176" width="2" height="10" rx="1"
    fill="#888888" />
  <rect class="fill-color-text" opacity="0.4" x="210.176" width="2" height="10" rx="1"
    fill="#888888" />
  <rect class="fill-color-text" opacity="0.4" x="240.176" width="2" height="10" rx="1"
    fill="#888888" />
  <rect class="fill-color-text" opacity="0.4" x="270.176" width="2" height="10" rx="1"
    fill="#888888" />
  <rect class="fill-color-text" opacity="0.4" x="300.176" width="2" height="10" rx="1"
    fill="#888888" />
  <rect class="fill-color-text" opacity="0.4" x="330.176" width="2" height="10" rx="1"
    fill="#888888" />
  <rect class="fill-color-text" opacity="0.4" x="360.176" width="2" height="10" rx="1"
    fill="#888888" />
  <rect class="fill-color-text" opacity="0.4" x="390.176" width="2" height="10" rx="1"
    fill="#888888" />
  <rect class="fill-color-text" opacity="0.4" x="420.176" width="2" height="10" rx="1"
    fill="#888888" />
  <rect class="fill-color-text" opacity="0.4" x="450.176" width="2" height="10" rx="1"
    fill="#888888" />
  <rect class="fill-color-text" opacity="0.4" x="480.176" width="2" height="10" rx="1"
    fill="#888888" />
  <path class="fill-color-text" opacity="0.8"
    d="M1.15578 37.64L1.35578 36.4C2.23578 36.94 3.25578 37.1 4.05578 37.1C5.79578 37.1 7.07578 36.3 7.07578 34.46C7.07578 33.2 6.09578 32.46 4.81578 31.74L3.61578 31.06C2.37578 30.36 1.47578 29.52 1.47578 27.98C1.47578 25.58 3.51578 24.46 5.59578 24.46C6.39578 24.46 7.15578 24.58 7.93578 24.88L7.81578 26.08C7.11578 25.74 6.33578 25.58 5.55578 25.58C4.07578 25.58 2.71578 26.24 2.71578 27.92C2.71578 29.02 3.39578 29.6 4.51578 30.22L5.71578 30.9C7.11578 31.7 8.33578 32.66 8.33578 34.48C8.33578 36.86 6.39578 38.22 3.99578 38.22C2.97578 38.22 2.09578 38.06 1.15578 37.64ZM12.0727 38H10.9927V23.58H12.0727V38ZM16.9938 37.8C15.3338 36.96 14.4938 35.1 14.4938 33C14.4938 30.26 16.1138 27.86 18.9938 27.86C22.0738 27.86 23.4938 30.16 23.4938 33C23.4938 35.8 22.0138 38.22 18.9938 38.22C18.2338 38.22 17.5738 38.08 16.9938 37.8ZM16.4538 35.84C16.9938 36.64 17.8138 37.18 18.9938 37.18C21.3338 37.18 22.3138 35.02 22.3138 33C22.3138 30.92 21.3938 28.9 18.9938 28.9C16.6538 28.9 15.6738 30.96 15.6738 33C15.6738 34.02 15.9138 35.04 16.4538 35.84ZM29.2145 38H27.9145L24.6745 28.06H25.8945L28.5945 36.86L31.3345 28.06H32.6345L35.3545 36.86L38.0345 28.06H39.1145L35.9345 38H34.6345L31.9345 29.24L29.2145 38ZM41.4545 32.24H47.0745C47.0145 30.7 46.5345 28.84 44.5145 28.84C42.3745 28.84 41.5545 30.84 41.4545 32.24ZM48.2545 33.2H41.4345C41.4345 35.3 42.5945 37.2 45.1345 37.2C45.9945 37.2 46.8345 37.02 47.5545 36.62L47.6145 37.7C46.7545 38.08 45.9945 38.22 45.0545 38.22C41.6745 38.22 40.2545 35.8 40.2545 33C40.2545 30.42 41.6945 27.86 44.4945 27.86C47.4545 27.86 48.2545 30.28 48.2545 32.68V33.2ZM51.5648 38H50.4848V30.42C50.4848 29.64 50.4648 28.84 50.3848 28.06H51.3648L51.4448 29.92C51.8248 28.9 52.8248 27.86 54.0248 27.86C54.3248 27.86 54.5848 27.86 54.8848 27.94L54.8048 29.12C54.5448 29.04 54.2848 29 54.0248 29C51.9448 29 51.5648 31.36 51.5648 32.92V38Z"
    fill="#9F9F9F" />
  <path class="fill-color-text" opacity="0.8"
    d="M221.636 25.74V36.92H222.756C226.676 36.92 229.156 35.28 229.156 31.14C229.156 27.6 227.076 25.74 223.556 25.74H221.636ZM222.776 38H220.436V24.66H223.516C227.776 24.66 230.416 26.84 230.416 31.14C230.416 35.94 227.236 38 222.776 38ZM233.47 32.24H239.09C239.03 30.7 238.55 28.84 236.53 28.84C234.39 28.84 233.57 30.84 233.47 32.24ZM240.27 33.2H233.45C233.45 35.3 234.61 37.2 237.15 37.2C238.01 37.2 238.85 37.02 239.57 36.62L239.63 37.7C238.77 38.08 238.01 38.22 237.07 38.22C233.69 38.22 232.27 35.8 232.27 33C232.27 30.42 233.71 27.86 236.51 27.86C239.47 27.86 240.27 30.28 240.27 32.68V33.2ZM244.46 38H243.38V29.02H241.42V28.06H243.38V26.72C243.38 25.44 243.48 23.38 245.9 23.38C246.22 23.38 246.7 23.42 247 23.58L246.88 24.62C246.58 24.48 246.24 24.42 245.92 24.42C244.64 24.42 244.46 25.44 244.46 26.62V28.06H246.7V29.02H244.46V38ZM253.955 32.94H253.595C251.355 32.94 248.935 33.18 248.935 35.24C248.935 36.6 249.775 37.2 250.915 37.2C253.155 37.2 253.955 35.42 253.955 33.44V32.94ZM255.175 38H254.115L254.055 36.3C253.515 37.5 252.275 38.22 250.835 38.22C249.075 38.22 247.755 37.16 247.755 35.26C247.755 32.72 250.135 31.98 253.275 31.98H253.955V31.46C253.955 29.88 253.355 28.88 251.575 28.88C250.635 28.88 249.675 29.14 248.855 29.6L248.735 28.58C249.535 28.12 250.595 27.86 251.575 27.86C254.055 27.86 255.035 29.2 255.035 31.54V35.94C255.035 36.6 255.075 37.3 255.175 38ZM259.146 28.06V33.98C259.146 35.66 259.486 37.18 261.506 37.18C263.746 37.18 264.426 35.28 264.426 33.38V28.06H265.506V35.64C265.506 36.42 265.526 37.22 265.606 38H264.626L264.566 36.28C263.846 37.56 262.866 38.22 261.366 38.22C258.786 38.22 258.066 36.46 258.066 34.14V28.06H259.146ZM269.635 38H268.555V23.58H269.635V38ZM274.496 29.02V35.48C274.496 36.38 274.736 37.18 275.796 37.18C276.196 37.18 276.536 37.06 276.916 36.9L276.996 37.94C276.536 38.12 276.076 38.22 275.576 38.22C273.596 38.22 273.416 36.72 273.416 34.98V29.02H271.516V28.06H273.416V25.76L274.496 25.38V28.06H276.756V29.02H274.496Z"
    fill="#9F9F9F" />
  <path class="fill-color-text" opacity="0.8"
    d="M443.136 38H441.936V24.66H448.116V25.74H443.136V30.62H447.896V31.66H443.136V38ZM455.553 32.94H455.193C452.953 32.94 450.533 33.18 450.533 35.24C450.533 36.6 451.373 37.2 452.513 37.2C454.753 37.2 455.553 35.42 455.553 33.44V32.94ZM456.773 38H455.713L455.653 36.3C455.113 37.5 453.873 38.22 452.433 38.22C450.673 38.22 449.353 37.16 449.353 35.26C449.353 32.72 451.733 31.98 454.873 31.98H455.553V31.46C455.553 29.88 454.953 28.88 453.173 28.88C452.233 28.88 451.273 29.14 450.453 29.6L450.333 28.58C451.133 28.12 452.193 27.86 453.173 27.86C455.653 27.86 456.633 29.2 456.633 31.54V35.94C456.633 36.6 456.673 37.3 456.773 38ZM458.984 37.78L459.104 36.62C459.884 37 460.764 37.18 461.504 37.18C462.704 37.18 463.644 36.62 463.644 35.26C463.644 32.84 459.244 33.5 459.244 30.54C459.244 28.7 460.824 27.86 462.424 27.86C463.204 27.86 463.844 27.92 464.564 28.22L464.444 29.34C463.824 29.04 463.164 28.9 462.464 28.9C461.444 28.9 460.404 29.28 460.404 30.54C460.404 32.56 464.824 31.98 464.824 35.26C464.824 37.22 463.144 38.22 461.464 38.22C460.724 38.22 459.844 38.12 458.984 37.78ZM468.985 29.02V35.48C468.985 36.38 469.225 37.18 470.285 37.18C470.685 37.18 471.025 37.06 471.405 36.9L471.485 37.94C471.025 38.12 470.565 38.22 470.065 38.22C468.085 38.22 467.905 36.72 467.905 34.98V29.02H466.005V28.06H467.905V25.76L468.985 25.38V28.06H471.245V29.02H468.985ZM473.994 32.24H479.614C479.554 30.7 479.074 28.84 477.054 28.84C474.914 28.84 474.094 30.84 473.994 32.24ZM480.794 33.2H473.974C473.974 35.3 475.134 37.2 477.674 37.2C478.534 37.2 479.374 37.02 480.094 36.62L480.154 37.7C479.294 38.08 478.534 38.22 477.594 38.22C474.214 38.22 472.794 35.8 472.794 33C472.794 30.42 474.234 27.86 477.034 27.86C479.994 27.86 480.794 30.28 480.794 32.68V33.2ZM484.104 38H483.024V30.42C483.024 29.64 483.004 28.84 482.924 28.06H483.904L483.984 29.92C484.364 28.9 485.364 27.86 486.564 27.86C486.864 27.86 487.124 27.86 487.424 27.94L487.344 29.12C487.084 29.04 486.824 29 486.564 29C484.484 29 484.104 31.36 484.104 32.92V38Z"
    fill="#9F9F9F" />
</svg>