<svg width="488" height="42" viewBox="0 0 488 42" fill="none" xmlns="http://www.w3.org/2000/svg">
  <g clip-path="url(#clip0_3770_62635)">
    <rect class="fill-color-text" opacity="0.4" width="2" height="10" rx="1" fill="#888888" />
    <rect class="fill-color-text" opacity="0.4" x="121.5" width="2" height="10" rx="1"
      fill="#888888" />
    <rect class="fill-color-text" opacity="0.4" x="243" width="2" height="10" rx="1" fill="#888888" />
    <rect class="fill-color-text" opacity="0.4" x="364.5" width="2" height="10" rx="1" fill="white" />
    <rect class="fill-color-text" opacity="0.4" x="486" width="2" height="10" rx="1" fill="#888888" />
    <path class="fill-color-text" opacity="0.5"
      d="M8.24 38H5.4V27.54L2.82 29.52L1.82 27.54L5.78 24.66H8.24V38ZM15.1378 37.64C13.3645 36.5867 12.4778 34.4867 12.4778 31.34C12.4778 30.62 12.5245 29.9467 12.6178 29.32C12.7245 28.68 12.9045 28.06 13.1578 27.46C13.4111 26.8467 13.7311 26.3267 14.1178 25.9C14.5045 25.46 14.9978 25.1133 15.5978 24.86C16.1978 24.5933 16.8778 24.46 17.6378 24.46C18.5711 24.46 19.3845 24.66 20.0778 25.06C20.7845 25.4467 21.3245 25.98 21.6978 26.66C22.0845 27.3267 22.3645 28.0533 22.5378 28.84C22.7245 29.6133 22.8178 30.4467 22.8178 31.34C22.8178 32.2467 22.7311 33.0867 22.5578 33.86C22.3845 34.6333 22.1045 35.36 21.7178 36.04C21.3445 36.72 20.8111 37.2533 20.1178 37.64C19.4245 38.0267 18.5978 38.22 17.6378 38.22C16.6378 38.22 15.8045 38.0267 15.1378 37.64ZM15.6978 34.64C16.0445 35.7333 16.6911 36.28 17.6378 36.28C17.9711 36.28 18.2645 36.2133 18.5178 36.08C18.7845 35.9467 18.9978 35.7467 19.1578 35.48C19.3311 35.2133 19.4711 34.9333 19.5778 34.64C19.6845 34.3467 19.7578 34 19.7978 33.6C19.8511 33.1867 19.8845 32.8133 19.8978 32.48C19.9245 32.1467 19.9378 31.7667 19.9378 31.34C19.9378 30.6333 19.9111 30.0333 19.8578 29.54C19.8178 29.0333 19.7245 28.52 19.5778 28C19.4311 27.48 19.1911 27.0867 18.8578 26.82C18.5378 26.54 18.1311 26.4 17.6378 26.4C17.1445 26.4 16.7378 26.54 16.4178 26.82C16.0978 27.1 15.8645 27.5 15.7178 28.02C15.5711 28.54 15.4711 29.0533 15.4178 29.56C15.3778 30.0533 15.3578 30.6467 15.3578 31.34C15.3578 32.82 15.4711 33.92 15.6978 34.64Z"
      fill="white" />
    <path class="fill-color-text" opacity="0.5"
      d="M126.84 38H117.44V35.86L121.92 31.76C123.173 30.6133 123.8 29.5733 123.8 28.64C123.8 27.96 123.547 27.4467 123.04 27.1C122.547 26.74 121.947 26.56 121.24 26.56C120.267 26.56 119.16 26.8533 117.92 27.44L117.82 25.28C119.34 24.7333 120.653 24.46 121.76 24.46C123.147 24.46 124.313 24.7733 125.26 25.4C126.207 26.0133 126.68 26.98 126.68 28.3C126.68 29.1667 126.44 29.9733 125.96 30.72C125.493 31.4533 124.727 32.3067 123.66 33.28L120.74 35.96H126.84V38ZM131.638 37.64C129.864 36.5867 128.978 34.4867 128.978 31.34C128.978 30.62 129.024 29.9467 129.118 29.32C129.224 28.68 129.404 28.06 129.658 27.46C129.911 26.8467 130.231 26.3267 130.618 25.9C131.004 25.46 131.498 25.1133 132.098 24.86C132.698 24.5933 133.378 24.46 134.138 24.46C135.071 24.46 135.884 24.66 136.578 25.06C137.284 25.4467 137.824 25.98 138.198 26.66C138.584 27.3267 138.864 28.0533 139.038 28.84C139.224 29.6133 139.318 30.4467 139.318 31.34C139.318 32.2467 139.231 33.0867 139.058 33.86C138.884 34.6333 138.604 35.36 138.218 36.04C137.844 36.72 137.311 37.2533 136.618 37.64C135.924 38.0267 135.098 38.22 134.138 38.22C133.138 38.22 132.304 38.0267 131.638 37.64ZM132.198 34.64C132.544 35.7333 133.191 36.28 134.138 36.28C134.471 36.28 134.764 36.2133 135.018 36.08C135.284 35.9467 135.498 35.7467 135.658 35.48C135.831 35.2133 135.971 34.9333 136.078 34.64C136.184 34.3467 136.258 34 136.298 33.6C136.351 33.1867 136.384 32.8133 136.398 32.48C136.424 32.1467 136.438 31.7667 136.438 31.34C136.438 30.6333 136.411 30.0333 136.358 29.54C136.318 29.0333 136.224 28.52 136.078 28C135.931 27.48 135.691 27.0867 135.358 26.82C135.038 26.54 134.631 26.4 134.138 26.4C133.644 26.4 133.238 26.54 132.918 26.82C132.598 27.1 132.364 27.5 132.218 28.02C132.071 28.54 131.971 29.0533 131.918 29.56C131.878 30.0533 131.858 30.6467 131.858 31.34C131.858 32.82 131.971 33.92 132.198 34.64Z"
      fill="white" />
    <path class="fill-color-text"
      d="M233.94 37.7L234.06 35.98C235.033 36.38 236.12 36.58 237.32 36.58C238.28 36.58 239.067 36.3667 239.68 35.94C240.307 35.5 240.62 34.8467 240.62 33.98C240.62 33.1933 240.32 32.6333 239.72 32.3C239.12 31.9667 238.36 31.8 237.44 31.8H235.68V30.3H237.18C239.34 30.3 240.42 29.54 240.42 28.02C240.42 27.3267 240.133 26.8267 239.56 26.52C239 26.2 238.307 26.04 237.48 26.04C236.467 26.04 235.447 26.2533 234.42 26.68L234.3 25.04C235.433 24.6533 236.593 24.46 237.78 24.46C238.633 24.46 239.4 24.56 240.08 24.76C240.76 24.9467 241.34 25.3067 241.82 25.84C242.313 26.36 242.56 27.0267 242.56 27.84C242.56 28.6667 242.313 29.3467 241.82 29.88C241.34 30.4133 240.68 30.7867 239.84 31C240.693 31.12 241.4 31.4467 241.96 31.98C242.533 32.5133 242.82 33.1867 242.82 34C242.82 34.9467 242.547 35.7467 242 36.4C241.467 37.0533 240.8 37.52 240 37.8C239.2 38.08 238.313 38.22 237.34 38.22C236.1 38.22 234.967 38.0467 233.94 37.7ZM247.45 37.6C245.824 36.5733 245.024 34.4867 245.05 31.34C245.05 30.66 245.09 30.0133 245.17 29.4C245.264 28.7867 245.424 28.1733 245.65 27.56C245.877 26.9467 246.164 26.42 246.51 25.98C246.87 25.5267 247.33 25.16 247.89 24.88C248.464 24.6 249.117 24.46 249.85 24.46C250.757 24.46 251.537 24.6667 252.19 25.08C252.844 25.4933 253.337 26.0467 253.67 26.74C254.017 27.4333 254.264 28.16 254.41 28.92C254.57 29.68 254.65 30.4867 254.65 31.34C254.65 32.2067 254.577 33.02 254.43 33.78C254.284 34.5267 254.037 35.2533 253.69 35.96C253.357 36.6533 252.864 37.2067 252.21 37.62C251.557 38.02 250.77 38.22 249.85 38.22C248.864 38.22 248.064 38.0133 247.45 37.6ZM247.61 34.8C248.01 36.0267 248.757 36.64 249.85 36.64C250.317 36.64 250.717 36.52 251.05 36.28C251.384 36.04 251.637 35.7467 251.81 35.4C251.997 35.0533 252.144 34.6267 252.25 34.12C252.357 33.6 252.424 33.14 252.45 32.74C252.477 32.3267 252.49 31.86 252.49 31.34C252.49 30.8067 252.477 30.3333 252.45 29.92C252.424 29.5067 252.357 29.0467 252.25 28.54C252.144 28.02 251.997 27.5933 251.81 27.26C251.637 26.9133 251.384 26.6267 251.05 26.4C250.717 26.16 250.317 26.04 249.85 26.04C249.384 26.04 248.984 26.16 248.65 26.4C248.317 26.6267 248.057 26.9133 247.87 27.26C247.697 27.5933 247.557 28.02 247.45 28.54C247.344 29.0467 247.277 29.5067 247.25 29.92C247.224 30.3333 247.21 30.8067 247.21 31.34C247.21 32.82 247.344 33.9733 247.61 34.8Z"
      fill="white" />
    <path class="fill-color-text" opacity="0.5"
      d="M355.26 27.18L351.08 33.2H355.26V27.18ZM355.22 35.18H349V32.84L354.96 24.66H357.98V33.14H359.9V35.18H357.98V38H355.22V35.18ZM363.638 37.64C361.864 36.5867 360.978 34.4867 360.978 31.34C360.978 30.62 361.024 29.9467 361.118 29.32C361.224 28.68 361.404 28.06 361.658 27.46C361.911 26.8467 362.231 26.3267 362.618 25.9C363.004 25.46 363.498 25.1133 364.098 24.86C364.698 24.5933 365.378 24.46 366.138 24.46C367.071 24.46 367.884 24.66 368.578 25.06C369.284 25.4467 369.824 25.98 370.198 26.66C370.584 27.3267 370.864 28.0533 371.038 28.84C371.224 29.6133 371.318 30.4467 371.318 31.34C371.318 32.2467 371.231 33.0867 371.058 33.86C370.884 34.6333 370.604 35.36 370.218 36.04C369.844 36.72 369.311 37.2533 368.618 37.64C367.924 38.0267 367.098 38.22 366.138 38.22C365.138 38.22 364.304 38.0267 363.638 37.64ZM364.198 34.64C364.544 35.7333 365.191 36.28 366.138 36.28C366.471 36.28 366.764 36.2133 367.018 36.08C367.284 35.9467 367.498 35.7467 367.658 35.48C367.831 35.2133 367.971 34.9333 368.078 34.64C368.184 34.3467 368.258 34 368.298 33.6C368.351 33.1867 368.384 32.8133 368.398 32.48C368.424 32.1467 368.438 31.7667 368.438 31.34C368.438 30.6333 368.411 30.0333 368.358 29.54C368.318 29.0333 368.224 28.52 368.078 28C367.931 27.48 367.691 27.0867 367.358 26.82C367.038 26.54 366.631 26.4 366.138 26.4C365.644 26.4 365.238 26.54 364.918 26.82C364.598 27.1 364.364 27.5 364.218 28.02C364.071 28.54 363.971 29.0533 363.918 29.56C363.878 30.0533 363.858 30.6467 363.858 31.34C363.858 32.82 363.971 33.92 364.198 34.64Z"
      fill="white" />
    <path class="fill-color-text" opacity="0.5"
      d="M466.32 37.72L466.44 35.96C467.307 36.3467 468.233 36.54 469.22 36.54C470.207 36.54 471.033 36.32 471.7 35.88C472.38 35.44 472.72 34.7267 472.72 33.74C472.72 32.86 472.42 32.22 471.82 31.82C471.22 31.42 470.44 31.22 469.48 31.22C468.64 31.22 467.7 31.38 466.66 31.7L466.78 24.66H474.28V26.24H468.74L468.62 29.96C469.14 29.8267 469.713 29.76 470.34 29.76C471.66 29.76 472.753 30.0733 473.62 30.7C474.487 31.3267 474.92 32.2933 474.92 33.6C474.92 34.6133 474.653 35.48 474.12 36.2C473.587 36.92 472.913 37.44 472.1 37.76C471.3 38.0667 470.413 38.22 469.44 38.22C468.253 38.22 467.213 38.0533 466.32 37.72ZM479.45 37.6C477.824 36.5733 477.024 34.4867 477.05 31.34C477.05 30.66 477.09 30.0133 477.17 29.4C477.264 28.7867 477.424 28.1733 477.65 27.56C477.877 26.9467 478.164 26.42 478.51 25.98C478.87 25.5267 479.33 25.16 479.89 24.88C480.464 24.6 481.117 24.46 481.85 24.46C482.757 24.46 483.537 24.6667 484.19 25.08C484.844 25.4933 485.337 26.0467 485.67 26.74C486.017 27.4333 486.264 28.16 486.41 28.92C486.57 29.68 486.65 30.4867 486.65 31.34C486.65 32.2067 486.577 33.02 486.43 33.78C486.284 34.5267 486.037 35.2533 485.69 35.96C485.357 36.6533 484.864 37.2067 484.21 37.62C483.557 38.02 482.77 38.22 481.85 38.22C480.864 38.22 480.064 38.0133 479.45 37.6ZM479.61 34.8C480.01 36.0267 480.757 36.64 481.85 36.64C482.317 36.64 482.717 36.52 483.05 36.28C483.384 36.04 483.637 35.7467 483.81 35.4C483.997 35.0533 484.144 34.6267 484.25 34.12C484.357 33.6 484.424 33.14 484.45 32.74C484.477 32.3267 484.49 31.86 484.49 31.34C484.49 30.8067 484.477 30.3333 484.45 29.92C484.424 29.5067 484.357 29.0467 484.25 28.54C484.144 28.02 483.997 27.5933 483.81 27.26C483.637 26.9133 483.384 26.6267 483.05 26.4C482.717 26.16 482.317 26.04 481.85 26.04C481.384 26.04 480.984 26.16 480.65 26.4C480.317 26.6267 480.057 26.9133 479.87 27.26C479.697 27.5933 479.557 28.02 479.45 28.54C479.344 29.0467 479.277 29.5067 479.25 29.92C479.224 30.3333 479.21 30.8067 479.21 31.34C479.21 32.82 479.344 33.9733 479.61 34.8Z"
      fill="white" />
  </g>
  <defs>
    <clipPath id="clip0_3770_62635">
      <rect width="488" height="42" fill="white" />
    </clipPath>
  </defs>
</svg>