<svg width="44" height="44" viewBox="0 0 44 44" fill="none" xmlns="http://www.w3.org/2000/svg">
      <g clip-path="url(#clip0_21_462)">
            <path class="fill-color-text " fill-rule="evenodd" clip-rule="evenodd"
                  d="M12.8128 5.95831C12.8128 8.48462 10.761 10.5416 8.23691 10.5416C5.71292 10.5416 3.66107 8.48462 3.66107 5.95831C3.66107 3.432 5.71283 1.375 8.23691 1.375C10.761 1.375 12.8128 3.432 12.8128 5.95831ZM10.9824 5.95831C10.9824 4.44211 9.75064 3.20831 8.23692 3.20831C6.72328 3.20831 5.49139 4.44211 5.49139 5.95831C5.49139 7.47451 6.72319 8.70832 8.23692 8.70832C9.75064 8.70832 10.9824 7.47451 10.9824 5.95831Z"
                  fill="white" />
            <path class="fill-color-text  "
                  d="M8.23691 10.6916C10.8441 10.6916 12.9628 8.56719 12.9628 5.95831H12.6628C12.6628 8.40205 10.6779 10.3916 8.23691 10.3916V10.6916ZM3.51107 5.95831C3.51107 8.5672 5.62981 10.6916 8.23691 10.6916V10.3916C5.79603 10.3916 3.81107 8.40205 3.81107 5.95831H3.51107ZM8.23691 1.225C5.62972 1.225 3.51107 3.34943 3.51107 5.95831H3.81107C3.81107 3.51458 5.79595 1.525 8.23691 1.525V1.225ZM12.9628 5.95831C12.9628 3.34943 10.8441 1.225 8.23691 1.225V1.525C10.6779 1.525 12.6628 3.51458 12.6628 5.95831H12.9628ZM8.23692 3.35831C9.66757 3.35831 10.8324 4.52472 10.8324 5.95831H11.1324C11.1324 4.3595 9.83372 3.05831 8.23692 3.05831V3.35831ZM5.64139 5.95831C5.64139 4.52473 6.80635 3.35831 8.23692 3.35831V3.05831C6.64021 3.05831 5.34139 4.3595 5.34139 5.95831H5.64139ZM8.23692 8.55832C6.80626 8.55832 5.64139 7.3919 5.64139 5.95831H5.34139C5.34139 7.55712 6.64012 8.85832 8.23692 8.85832V8.55832ZM10.8324 5.95831C10.8324 7.3919 9.66757 8.55832 8.23692 8.55832V8.85832C9.83372 8.85832 11.1324 7.55712 11.1324 5.95831H10.8324Z"
                  fill="white" />
            <path class="fill-color-text  " fill-rule="evenodd" clip-rule="evenodd"
                  d="M16.4551 26.1012C16.5558 26.9922 16.2812 27.8759 15.7028 28.5267C15.205 29.0877 14.5405 29.4122 13.823 29.4525L12.8127 43.1513C12.7742 43.6298 12.377 44.0001 11.8975 44.0001H4.5761C4.09658 44.0001 3.69942 43.6298 3.66279 43.1513L2.65243 29.4525C1.93311 29.4122 1.27058 29.0859 0.772695 28.5267C0.194334 27.8777 -0.0802183 26.9922 0.0204222 26.1012L1.23394 15.4532C1.52128 12.9158 3.5292 11 5.90133 11H10.5742C12.9463 11 14.9543 12.914 15.2416 15.4532L16.4551 26.1012ZM13.6657 27.6229C14.0024 27.6229 14.2312 27.423 14.3356 27.3057C14.568 27.0436 14.6779 26.6806 14.6341 26.3084L13.4205 15.6604C13.2374 14.0489 12.0129 12.8334 10.5725 12.8334H5.89961C4.45907 12.8334 3.23457 14.0489 3.05156 15.6604L1.83804 26.3084C1.79591 26.6805 1.90393 27.0435 2.13636 27.3057C2.24249 27.4231 2.47131 27.6229 2.80626 27.6229H3.50182C3.98135 27.6229 4.3785 27.9932 4.41514 28.4717L5.42729 42.1668H11.0464L12.0568 28.4717C12.0933 27.9932 12.4906 27.6229 12.9701 27.6229H13.6657Z"
                  fill="white" />

            <path class="fill-color-text stroke-color-text "
                  d="M23.7949 29.3335C22.2098 29.3335 20.6815 28.8055 19.3746 27.8063C18.9738 27.5001 18.399 27.5753 18.0915 27.9786C17.784 28.3819 17.8627 28.9576 18.2635 29.2638C19.8907 30.5086 21.8034 31.1668 23.7948 31.1668C28.8411 31.1668 32.9484 27.0528 32.9484 21.9983C32.9484 16.9437 28.8429 12.8315 23.7966 12.8315C21.419 12.8315 19.1604 13.7518 17.4398 15.4202C17.0756 15.7722 17.0664 16.3534 17.4178 16.7164C17.7729 17.0812 18.3495 17.0904 18.7119 16.7384C20.0902 15.4019 21.8949 14.6667 23.7948 14.6667C27.8325 14.6667 31.1162 17.9557 31.1162 22.0001C31.1162 26.0444 27.8326 29.3335 23.7949 29.3335Z"
                  fill="white" stroke="white" />
            <path class="fill-color-text stroke-color-text"
                  d="M43.8299 19.2298C43.6926 18.1243 43.0758 17.1691 42.1405 16.6081C41.2436 16.0691 40.1692 15.9756 39.1753 16.3588C38.3974 16.6631 37.4987 16.2415 37.1344 15.4036C36.7061 14.4228 36.1808 13.4841 35.5732 12.6151C35.0314 11.8433 35.1321 10.8331 35.802 10.2648C36.6129 9.57908 37.0649 8.57258 37.043 7.50008C37.021 6.41288 36.5195 5.40827 35.6665 4.74457C34.2681 3.65557 32.7416 2.74987 31.1291 2.05326C30.1407 1.62607 29.0407 1.67557 28.1035 2.19076C27.1628 2.70776 26.5239 3.62076 26.3482 4.69696C26.2055 5.57146 25.4165 6.16546 24.5105 6.06277C23.4874 5.95277 22.4221 5.95277 21.3916 6.06277C20.4819 6.15627 19.6986 5.57327 19.5558 4.69507C19.3911 3.67757 18.798 2.79387 17.9286 2.27137C17.0538 1.74707 15.9976 1.63707 15.0294 1.97068C14.5499 2.13568 14.2954 2.65637 14.4601 3.13487C14.623 3.61337 15.141 3.86457 15.6224 3.70507C16.0782 3.54557 16.576 3.59687 16.986 3.84437C17.3996 4.09187 17.6687 4.49707 17.7492 4.99018C18.0494 6.84368 19.6894 8.09219 21.5857 7.88499C22.4862 7.79149 23.4252 7.79149 24.3147 7.88499C26.2036 8.09769 27.8601 6.81249 28.153 4.99018C28.2371 4.47688 28.5391 4.04237 28.9821 3.79848C29.4196 3.55829 29.9358 3.53629 30.4025 3.73618C31.8723 4.37238 33.267 5.19918 34.5445 6.19288C34.9582 6.51368 35.2017 7.00318 35.2127 7.53669C35.2236 8.05369 35.0095 8.53769 34.6233 8.86399C33.2213 10.0483 32.9852 12.1145 34.076 13.6673C34.6141 14.4373 35.0791 15.2678 35.4579 16.1368C36.2139 17.8748 38.1358 18.72 39.8526 18.0618C40.3083 17.8895 40.7861 17.9298 41.1997 18.1791C41.6482 18.4486 41.9447 18.9143 42.0124 19.4569C42.1167 20.2709 42.1679 21.1032 42.1679 21.9319C42.1679 22.7606 42.1167 23.5929 42.0124 24.4087C41.9447 24.9495 41.6482 25.4152 41.1997 25.6847C40.7861 25.934 40.3029 25.9799 39.8324 25.7947C38.1302 25.142 36.212 25.9909 35.4561 27.7271C35.0772 28.5961 34.6122 29.4284 34.0741 30.1966C32.9851 31.7494 33.2193 33.8156 34.6214 35.0018C35.0076 35.3281 35.2217 35.8103 35.2108 36.3273C35.1998 36.859 34.9582 37.3485 34.5427 37.6711C33.2632 38.6666 31.8703 39.4916 30.4006 40.1278C29.9339 40.3276 29.4159 40.3038 28.9802 40.0655C28.5373 39.8217 28.2352 39.3872 28.1511 38.8757C27.8564 37.0497 26.1615 35.7664 24.3146 35.979C23.4214 36.0743 22.4824 36.0762 21.5856 35.979C19.6857 35.7755 18.0476 37.0203 17.7474 38.8738C17.6742 39.323 17.4362 39.7098 17.0792 39.9646C16.7241 40.2176 16.2922 40.3148 15.8712 40.2396C15.3843 40.1461 14.8993 40.4816 14.8114 40.9821C14.7236 41.4808 15.0567 41.9556 15.5527 42.0436C15.7541 42.0784 15.9554 42.0968 16.155 42.0968C16.8615 42.0968 17.5497 41.8786 18.1409 41.4643C18.9024 40.9235 19.4038 40.1095 19.5558 39.1726C19.6986 38.2963 20.4783 37.7023 21.3935 37.8049C22.4203 37.9149 23.4838 37.9149 24.5124 37.8049C25.4221 37.7041 26.2055 38.2944 26.3482 39.1726C26.5239 40.2488 27.1627 41.1618 28.1035 41.6769C29.0407 42.1921 30.1425 42.2416 31.1291 41.8144C32.7398 41.1177 34.2663 40.2121 35.6665 39.1231C36.5194 38.4594 37.021 37.4548 37.043 36.3676C37.0631 35.2951 36.611 34.2886 35.802 33.6029C35.1321 33.0346 35.0314 32.0226 35.5732 31.2507C36.1809 30.3817 36.708 29.4449 37.1344 28.464C37.4986 27.628 38.3974 27.2082 39.1954 27.5162C40.1728 27.8902 41.2435 27.7967 42.1404 27.2595C43.0757 26.6985 43.6925 25.7433 43.8298 24.6397C43.9433 23.7468 44 22.8375 44 21.9337C44.0001 21.0301 43.9433 20.119 43.8299 19.2298Z"
                  fill="white" stroke="white" />
      </g>
      <defs>
            <clipPath id="clip0_21_462">
                  <rect class="fill-color-text" width="44" height="44"
                        fill="white" />
            </clipPath>
      </defs>
</svg>