<svg width="44" height="44" viewBox="0 0 44 44" fill="none" xmlns="http://www.w3.org/2000/svg">
<path d="M24.8764 15.1351H21.5005L24.6755 11.5905L24.9729 11.2609L25.1256 11.068C25.1787 10.9934 25.2219 10.9124 25.2542 10.8269C25.2907 10.7347 25.3097 10.6366 25.3105 10.5375C25.3329 10.3031 25.2167 10.077 25.0131 9.95877C24.7489 9.8376 24.4593 9.78234 24.1691 9.79801H20.2225C20.0119 9.78365 19.8034 9.84654 19.6358 9.97485C19.4973 10.0927 19.4203 10.2673 19.4268 10.4491C19.4268 10.7224 19.5179 10.8884 19.7001 10.9474C19.9613 11.0217 20.2325 11.0542 20.5039 11.0439H23.076C22.9688 11.1939 22.8295 11.3707 22.658 11.5744L21.9989 12.3139L21.1067 13.2784L20.0698 14.4278C19.7108 14.8297 19.475 15.0977 19.3625 15.2316C19.1073 15.5416 19.139 15.997 19.4348 16.2685C19.6468 16.4282 19.9097 16.5053 20.1743 16.4855H24.8684C25.093 16.5031 25.3162 16.4373 25.4953 16.3006C25.6319 16.1814 25.7085 16.0077 25.7043 15.8264C25.7113 15.6376 25.6348 15.4554 25.4953 15.3281C25.3205 15.1884 25.0996 15.1196 24.8764 15.1351Z" fill="white" stroke="white" stroke-width="0.5"/>
<path d="M32.1106 19.2823H29.4099L31.9418 16.453L32.1829 16.1878L32.3356 16.0029C32.3787 15.9434 32.4138 15.8786 32.4401 15.81C32.4706 15.7359 32.487 15.657 32.4884 15.5769C32.5086 15.3893 32.4174 15.2072 32.2553 15.1107C32.044 15.0136 31.8123 14.9694 31.5801 14.9821H28.3971C28.2294 14.9728 28.0638 15.0241 27.9309 15.1268C27.8198 15.2202 27.7576 15.3595 27.7621 15.5046C27.7621 15.7189 27.8344 15.8529 27.9791 15.9065C28.1883 15.9644 28.4053 15.9888 28.6222 15.9788H30.6798C30.5995 16.0994 30.4869 16.236 30.3423 16.4048L29.8118 16.9996L29.1205 17.8034L28.3167 18.7197C28.0274 19.0412 27.8372 19.2609 27.746 19.3788C27.5566 19.6217 27.5809 19.9684 27.8023 20.1826C27.971 20.3081 28.1795 20.3681 28.3891 20.3514H32.1186C32.2969 20.3656 32.4741 20.3142 32.617 20.2067C32.7233 20.1103 32.7819 19.9723 32.7777 19.8289C32.7814 19.6793 32.7199 19.5355 32.6089 19.4351C32.4683 19.3225 32.2901 19.268 32.1106 19.2823Z" fill="white" stroke="white" stroke-width="0.5"/>
<path d="M40.4217 14.7251H37.0217L40.1966 11.1804L40.494 10.8509L40.687 10.6178C40.74 10.5432 40.7832 10.4621 40.8156 10.3766C40.852 10.2845 40.871 10.1863 40.8718 10.0873C40.8942 9.85287 40.7781 9.62681 40.5744 9.50855C40.3103 9.38738 40.0206 9.33222 39.7304 9.34779H35.7437C35.5331 9.33343 35.3245 9.39632 35.1569 9.52463C35.0185 9.64248 34.9414 9.8171 34.9479 9.99886C34.9479 10.2721 35.0391 10.4382 35.2212 10.4972C35.4825 10.5715 35.7536 10.604 36.025 10.5937H38.5971C38.4899 10.7437 38.3507 10.9205 38.1791 11.1242L37.512 11.8797L36.6439 12.8443L35.607 13.9937C35.248 14.3956 35.0122 14.6635 34.8997 14.7975C34.6445 15.1074 34.6763 15.5629 34.9721 15.8343C35.184 15.9941 35.4469 16.0712 35.7115 16.0514H40.3976C40.6245 16.0799 40.8538 16.0225 41.0406 15.8906C41.1772 15.7713 41.2537 15.5976 41.2496 15.4164C41.2565 15.2276 41.1801 15.0453 41.0406 14.918C40.8658 14.7784 40.6449 14.7095 40.4217 14.7251Z" fill="white" stroke="white" stroke-width="0.5"/>
<path fill-rule="evenodd" clip-rule="evenodd" d="M37.3834 28.2687C28.6716 31.875 18.6857 27.7364 15.0792 19.0244C13.2479 14.6005 13.3584 9.61082 15.3839 5.27239C15.5737 4.87111 15.4022 4.39195 15.0009 4.20216C14.7949 4.1047 14.5572 4.09937 14.347 4.18729C4.79593 8.11066 0.233753 19.0339 4.15712 28.5849C8.08049 38.136 19.0037 42.6982 28.5549 38.7748C32.911 36.9854 36.4314 33.618 38.4124 29.3456C38.5518 29.0468 38.4944 28.6931 38.2676 28.4535C38.0386 28.2165 37.6882 28.1432 37.3834 28.2687ZM4.36691 21.4818C4.36792 15.2818 7.72552 9.56832 13.1413 6.55041C12.5 8.45397 12.1742 10.4496 12.1768 12.4582C12.1773 22.7882 20.5518 31.1619 30.8817 31.1614C32.613 31.1613 34.3358 30.9208 36.0009 30.4469C32.8838 35.4871 27.3867 38.5623 21.4605 38.5812C12.0183 38.5796 4.3653 30.924 4.36691 21.4818Z" fill="white"/>
<path d="M37.3834 28.2687L37.1931 27.8063L37.1922 27.8067L37.3834 28.2687ZM15.0792 19.0244L14.6173 19.2157L14.6173 19.2157L15.0792 19.0244ZM15.3839 5.27239L14.9319 5.05862L14.9308 5.06088L15.3839 5.27239ZM15.0009 4.20216L14.787 4.65411L14.7871 4.65415L15.0009 4.20216ZM14.347 4.18729L14.537 4.64979L14.5399 4.64856L14.347 4.18729ZM28.5549 38.7748L28.7449 39.2373H28.7449L28.5549 38.7748ZM38.4124 29.3456L37.9593 29.1343L37.9588 29.1353L38.4124 29.3456ZM38.2676 28.4535L38.6307 28.1098L38.6272 28.1061L38.2676 28.4535ZM4.36691 21.4818L4.86691 21.4819V21.4819L4.36691 21.4818ZM13.1413 6.55041L13.6152 6.71005L14.0283 5.48376L12.8979 6.11365L13.1413 6.55041ZM12.1768 12.4582L12.6768 12.4582L12.6768 12.4576L12.1768 12.4582ZM30.8817 31.1614L30.8818 31.6614H30.8818L30.8817 31.1614ZM36.0009 30.4469L36.4262 30.7099L37.1046 29.6129L35.8641 29.966L36.0009 30.4469ZM21.4605 38.5812L21.4604 39.0812L21.4621 39.0812L21.4605 38.5812ZM37.1922 27.8067C28.7355 31.3074 19.0421 27.29 15.5412 18.8332L14.6173 19.2157C18.3294 28.1827 28.6077 32.4426 37.5747 28.7306L37.1922 27.8067ZM15.5412 18.8332C13.7635 14.5388 13.8708 9.69527 15.8369 5.48391L14.9308 5.06088C12.8461 9.52637 12.7323 14.6622 14.6173 19.2157L15.5412 18.8332ZM15.8359 5.48617C16.1438 4.83519 15.8655 4.05799 15.2147 3.75016L14.7871 4.65415C14.9388 4.72591 15.0036 4.90702 14.9319 5.05862L15.8359 5.48617ZM15.2147 3.7502C14.8804 3.59202 14.4949 3.58347 14.1541 3.72601L14.5399 4.64856C14.6195 4.61528 14.7094 4.61737 14.787 4.65411L15.2147 3.7502ZM14.157 3.72479C4.35052 7.75308 -0.333672 18.9684 3.69462 28.7749L4.61962 28.395C0.801179 19.0993 5.24135 8.46823 14.537 4.64979L14.157 3.72479ZM3.69462 28.7749C7.72292 38.5814 18.9383 43.2656 28.7449 39.2373L28.3649 38.3123C19.0692 42.1308 8.43807 37.6906 4.61962 28.395L3.69462 28.7749ZM28.7449 39.2373C33.2175 37.4 36.832 33.9426 38.866 29.556L37.9588 29.1353C36.0307 33.2935 32.6045 36.5707 28.3649 38.3123L28.7449 39.2373ZM38.8655 29.557C39.0916 29.0722 38.9985 28.4983 38.6307 28.1098L37.9045 28.7973C37.9902 28.8878 38.0119 29.0215 37.9593 29.1343L38.8655 29.557ZM38.6272 28.1061C38.2559 27.7218 37.6875 27.6027 37.1931 27.8063L37.5738 28.731C37.6889 28.6836 37.8214 28.7113 37.908 28.8009L38.6272 28.1061ZM4.86691 21.4819C4.86789 15.4632 8.1273 9.91682 13.3847 6.98718L12.8979 6.11365C7.32375 9.21981 3.86795 15.1004 3.86691 21.4817L4.86691 21.4819ZM12.6675 6.39078C12.0088 8.34598 11.6741 10.3957 11.6768 12.4589L12.6768 12.4576C12.6742 10.5034 12.9912 8.56197 13.6152 6.71005L12.6675 6.39078ZM11.6768 12.4582C11.6773 23.0643 20.2757 31.6619 30.8818 31.6614L30.8817 30.6614C20.8279 30.6619 12.6773 22.512 12.6768 12.4582L11.6768 12.4582ZM30.8818 31.6614C32.6593 31.6613 34.4282 31.4144 36.1378 30.9278L35.8641 29.966C34.2434 30.4273 32.5667 30.6613 30.8817 30.6614L30.8818 31.6614ZM35.5757 30.1839C32.5493 35.0773 27.2124 38.0629 21.4589 38.0812L21.4621 39.0812C27.5609 39.0618 33.2182 35.897 36.4262 30.7099L35.5757 30.1839ZM21.4606 38.0812C12.2946 38.0796 4.86535 30.6479 4.86691 21.4819L3.86691 21.4817C3.86526 31.2 11.7421 39.0796 21.4604 39.0812L21.4606 38.0812Z" fill="white"/>
</svg>
