<svg width="488" height="36" viewBox="0 0 488 36" fill="none" xmlns="http://www.w3.org/2000/svg">
<path opacity="0.2" d="M484 14C486.209 14 488 15.7909 488 18C488 20.2092 486.209 22 484 22L3.99999 22C1.79086 22 -2.7141e-07 20.2091 -1.74846e-07 18C-7.8281e-08 15.7909 1.79086 14 4 14L484 14Z" fill="#6A7174"/>
<g clip-path="url(#clip0_3742_57723)">
<path d="M17.9999 35.5C8.34178 35.5 0.499999 27.6582 0.499999 18.0001C0.5 8.34177 8.34178 0.499999 17.9999 0.499999C27.6582 0.5 35.5 8.34178 35.5 18.0001C35.5 27.6582 27.6582 35.5 17.9999 35.5Z" fill="url(#paint0_linear_3742_57723)" stroke="url(#paint1_linear_3742_57723)"/>
</g>
<defs>
<linearGradient id="paint0_linear_3742_57723" x1="97.4423" y1="18" x2="-1.90482e-06" y2="18" gradientUnits="userSpaceOnUse">
<stop stop-color="#DC0000"/>
<stop offset="1" stop-color="#6F0404"/>
</linearGradient>
<linearGradient id="paint1_linear_3742_57723" x1="28.6579" y1="18" x2="5.08421e-07" y2="18" gradientUnits="userSpaceOnUse">
<stop stop-color="#ECECEC"/>
<stop offset="0.545362" stop-color="#F9F9F9"/>
</linearGradient>
<clipPath id="clip0_3742_57723">
<rect width="36" height="36" fill="white" transform="translate(36) rotate(90)"/>
</clipPath>
</defs>
</svg>
