<svg width="46" height="46" viewBox="0 0 46 46" fill="none" xmlns="http://www.w3.org/2000/svg">
    <path class="fill-color-text stroke-color-text" d="M31.3993 1.17133L31.4351 1.31694L31.3993 1.17133C29.4953 1.63864 27.6916 2.615 26.2077 4.0989C24.9708 5.33585 24.0858 6.79663 23.5542 8.35354L23.6962 8.402L23.5542 8.35355C23.0786 9.74683 22.8888 11.2168 22.9842 12.6726L2.98509 32.672C1.5609 34.0962 0.850122 35.9723 0.850122 37.8437C0.850122 39.7047 1.5531 41.5702 2.96142 42.9914C2.97862 43.0095 2.99469 43.0253 3.00841 43.0384C4.42967 44.4473 6.29554 45.1505 8.15683 45.1505C10.0281 45.1505 11.9043 44.4396 13.3284 43.0155L13.2224 42.9095L13.3284 43.0155L33.3275 23.0161C34.7833 23.1115 36.2533 22.9218 37.6466 22.4461C39.2035 21.9146 40.6643 21.0296 41.9012 19.7926C43.4243 18.2695 44.4128 16.4094 44.8649 14.4494C45.3284 12.4415 45.2271 10.3304 44.5605 8.36892C44.4973 8.16397 44.3843 7.97086 44.2234 7.80995C43.6933 7.2798 42.834 7.2798 42.3039 7.80995L36.242 13.8719L32.8182 12.9545L31.9247 9.61996L37.9172 3.62729C37.9175 3.62697 37.9179 3.62665 37.9182 3.62633C38.0762 3.47325 38.1987 3.27984 38.2683 3.05776C38.4932 2.33963 38.09 1.58053 37.3773 1.35746C35.4388 0.750541 33.3664 0.688614 31.3993 1.17133ZM31.8502 20.6544L31.85 20.6546L31.8485 20.6561L31.8476 20.6571L11.409 41.0959C10.5169 41.988 9.33926 42.4358 8.15683 42.4358C6.97427 42.4358 5.7967 41.988 4.90461 41.0959L4.89126 41.0826C4.00804 40.192 3.56476 39.0203 3.56476 37.8437C3.56476 36.6612 4.01247 35.4837 4.90456 34.5916L4.79849 34.4855L4.90456 34.5916L25.3533 14.1426C25.3533 14.1426 25.3533 14.1426 25.3533 14.1426C25.6826 13.8134 25.8061 13.3575 25.7284 12.9356C25.5819 11.6943 25.7131 10.4243 26.1219 9.22691C26.521 8.05787 27.1886 6.9569 28.1271 6.01837C29.2521 4.89345 30.6126 4.1563 32.0462 3.80453L32.0462 3.80452C32.7334 3.63584 33.4383 3.55527 34.1428 3.56286L29.5474 8.15846L29.5472 8.15859L29.4523 8.25325L29.4522 8.25341C29.0835 8.62228 28.9717 9.15031 29.1144 9.61381L30.3993 14.4132L30.3993 14.4132C30.5345 14.9173 30.9362 15.2778 31.4094 15.3857L36.2073 16.6722C36.2074 16.6722 36.2074 16.6722 36.2074 16.6722C36.4663 16.7417 36.729 16.7309 36.9669 16.6558C37.2242 16.6064 37.4709 16.4819 37.6699 16.2832L37.6699 16.2831L42.4269 11.5258C42.4659 12.3018 42.3976 13.082 42.2222 13.842C41.882 15.3167 41.136 16.7188 39.9818 17.8731C39.0432 18.8117 37.9424 19.4794 36.7734 19.8785C35.6192 20.2725 34.3978 20.4086 33.1994 20.2868C33.1988 20.2867 33.1982 20.2866 33.1976 20.2866L32.9886 20.26C32.551 20.2045 32.1357 20.3647 31.8502 20.6544Z"
          fill="white" stroke="white" stroke-width="0.3"/>
    <path class="fill-color-text" d="M7.60969 37.9268C7.21917 37.5363 7.21917 36.9031 7.60969 36.5126L15.0486 29.0736C15.4391 28.6831 16.0723 28.6831 16.4628 29.0736L16.9457 29.5565C17.3362 29.947 17.3362 30.5802 16.9457 30.9707L9.50678 38.4097C9.11626 38.8003 8.4831 38.8003 8.09258 38.4097L7.60969 37.9268Z"
          fill="white"/>
</svg>
