<svg width="44" height="44" viewBox="0 0 44 44" fill="none" xmlns="http://www.w3.org/2000/svg">
<g clip-path="url(#clip0_21_866)">
<path d="M33.0824 26.5267L40.4723 33.9166L33.0825 41.3064C32.5814 41.8075 31.7689 41.8075 31.2677 41.3064C30.7667 40.8053 30.7666 39.993 31.2675 39.4918L35.5596 35.1981H7.33241C6.62415 35.1981 6.04999 34.6239 6.04999 33.9157C6.04999 33.2074 6.62415 32.6333 7.33241 32.6333H35.5599L31.2678 28.3412C30.7668 27.8401 30.7668 27.0277 31.2678 26.5267C31.7689 26.0256 32.5813 26.0256 33.0824 26.5267Z" fill="white" stroke="white" stroke-width="0.7"/>
<path fill-rule="evenodd" clip-rule="evenodd" d="M10.7643 2.06922L4.16421 8.66935L2.75 10.0836L4.16421 11.4978L10.7643 18.0979C11.3501 18.6837 12.2999 18.6837 12.8857 18.0979L13.3567 17.6269C13.9425 17.0411 13.9425 16.0914 13.3567 15.5056L11.768 13.9169L9.768 11.9169H12.5964H37C37.8284 11.9169 38.5 11.2453 38.5 10.4169V9.75023C38.5 8.9218 37.8284 8.25023 37 8.25023H12.5964H9.768L11.768 6.25023L13.3567 4.66156C13.9425 4.07577 13.9425 3.12602 13.3567 2.54024L12.8857 2.06922C12.2999 1.48344 11.3501 1.48344 10.7643 2.06922Z" fill="white"/>
</g>
<defs>
<clipPath id="clip0_21_866">
<rect width="44" height="44" fill="white"/>
</clipPath>
</defs>
</svg>
