<svg width="44" height="44" viewBox="0 0 44 44" fill="none" xmlns="http://www.w3.org/2000/svg">
      <g clip-path="url(#clip0_21_1590)">
            <path class="fill-color-text" fill-rule="evenodd" clip-rule="evenodd"
                  d="M8.70837 10.5417C8.70837 5.48717 12.8205 1.375 17.875 1.375C22.9295 1.375 27.0417 5.48717 27.0417 10.5417C27.0417 15.5962 22.9295 19.7083 17.875 19.7083C12.8205 19.7083 8.70837 15.5962 8.70837 10.5417ZM10.5417 10.5417C10.5417 14.586 13.8307 17.875 17.875 17.875C21.9194 17.875 25.2084 14.586 25.2084 10.5417C25.2084 6.49733 21.9194 3.20833 17.875 3.20833C13.8307 3.20833 10.5417 6.49733 10.5417 10.5417Z"
                  fill="white" />
            <path class="fill-color-text "
                  d="M9.10837 10.5417C9.10837 5.70808 13.0415 1.775 17.875 1.775V0.975C12.5996 0.975 8.30837 5.26625 8.30837 10.5417H9.10837ZM17.875 1.775C22.7086 1.775 26.6417 5.70808 26.6417 10.5417H27.4417C27.4417 5.26625 23.1505 0.975 17.875 0.975V1.775ZM26.6417 10.5417C26.6417 15.3753 22.7086 19.3083 17.875 19.3083V20.1083C23.1505 20.1083 27.4417 15.8171 27.4417 10.5417H26.6417ZM17.875 19.3083C13.0415 19.3083 9.10837 15.3753 9.10837 10.5417H8.30837C8.30837 15.8171 12.5996 20.1083 17.875 20.1083V19.3083ZM10.1417 10.5417C10.1417 14.8069 13.6098 18.275 17.875 18.275V17.475C14.0516 17.475 10.9417 14.3651 10.9417 10.5417H10.1417ZM17.875 18.275C22.1403 18.275 25.6084 14.8069 25.6084 10.5417H24.8084C24.8084 14.3651 21.6985 17.475 17.875 17.475V18.275ZM25.6084 10.5417C25.6084 6.27642 22.1403 2.80833 17.875 2.80833V3.60833C21.6985 3.60833 24.8084 6.71825 24.8084 10.5417H25.6084ZM17.875 2.80833C13.6098 2.80833 10.1417 6.27642 10.1417 10.5417H10.9417C10.9417 6.71825 14.0516 3.60833 17.875 3.60833V2.80833Z"
                  fill="white" />
            <path class="fill-color-text stroke-color-text"
                  d="M2.29167 38.5C1.78567 38.5 1.375 38.0893 1.375 37.5833V30.25C1.375 25.7015 5.0765 22 9.625 22H20.625C21.131 22 21.5417 22.4107 21.5417 22.9167C21.5417 23.4227 21.131 23.8333 20.625 23.8333H9.625C6.08667 23.8333 3.20833 26.7117 3.20833 30.25V36.6667H16.9583C17.4643 36.6667 17.875 37.0773 17.875 37.5833C17.875 38.0893 17.4643 38.5 16.9583 38.5H2.29167Z"
                  fill="white" stroke="white" stroke-width="0.8" />
            <path class="fill-color-text" fill-rule="evenodd" clip-rule="evenodd"
                  d="M27.9585 32.0838C27.9585 29.5575 30.0155 27.5005 32.5418 27.5005C35.0681 27.5005 37.1251 29.5575 37.1251 32.0838C37.1251 34.6101 35.0681 36.6671 32.5418 36.6671C30.0155 36.6671 27.9585 34.6101 27.9585 32.0838ZM29.7918 32.0838C29.7918 33.6 31.0257 34.8338 32.5418 34.8338C34.058 34.8338 35.2918 33.6 35.2918 32.0838C35.2918 30.5676 34.058 29.3338 32.5418 29.3338C31.0257 29.3338 29.7918 30.5676 29.7918 32.0838Z"
                  fill="white" />
            <path class="fill-color-text" fill-rule="evenodd" clip-rule="evenodd"
                  d="M31.0787 44.0005C30.1327 44.0005 29.3481 43.291 29.2546 42.3486L29.0217 40.0184C28.4662 39.7709 27.9364 39.463 27.4359 39.0963L25.2946 40.0624C24.4347 40.4548 23.4246 40.1266 22.9534 39.3071L21.4922 36.7753C21.0192 35.9558 21.2429 34.9218 22.0092 34.3699L23.8957 33.0133C23.8591 32.7291 23.8334 32.4138 23.8334 32.0838C23.8334 31.7538 23.8591 31.4366 23.8957 31.1543L22.0092 29.7976C21.2429 29.2458 21.0192 28.2118 21.4922 27.3923L22.9534 24.8604C23.4264 24.0409 24.4311 23.7164 25.2946 24.1051L27.4359 25.0713C27.9364 24.7046 28.4662 24.3966 29.0217 24.1491L29.2546 21.8189C29.3481 20.8784 30.1327 20.1689 31.0787 20.1689H34.0029C34.9489 20.1689 35.7336 20.8784 35.8271 21.8208L36.0599 24.1509C36.6172 24.3984 37.1471 24.7083 37.6457 25.0731L39.7871 24.1069C40.6506 23.7201 41.6571 24.0446 42.1282 24.8623L43.5894 27.3941C44.0624 28.2136 43.8387 29.2476 43.0724 29.7994L41.1859 31.1561C41.2226 31.4403 41.2482 31.7556 41.2482 32.0856C41.2482 32.4156 41.2226 32.7328 41.1859 33.0151L43.0724 34.3718C43.8387 34.9236 44.0624 35.9576 43.5894 36.7771L42.1301 39.3071C41.6571 40.1248 40.6542 40.4529 39.7889 40.0624L37.6476 39.0963C37.1471 39.463 36.6172 39.7709 36.0617 40.0184L35.8271 42.3505C35.7336 43.291 34.9489 44.0005 34.0029 44.0005H31.0787ZM28.1527 37.3308C28.7742 37.8514 29.4617 38.2493 30.1932 38.517C30.5232 38.638 30.7561 38.9368 30.7909 39.287L31.0806 42.1671H34.0047L34.2926 39.287C34.3274 38.9368 34.5602 38.638 34.8902 38.517C35.6217 38.2493 36.3092 37.8496 36.9307 37.3308C37.2021 37.1053 37.5761 37.0539 37.8951 37.1988L40.5424 38.3941L42.0036 35.8623L39.6606 34.1793C39.3746 33.9739 39.2334 33.6219 39.2921 33.2754C39.3599 32.8886 39.4149 32.4944 39.4149 32.0874C39.4149 31.6804 39.3599 31.2863 39.2921 30.8994C39.2316 30.5529 39.3746 30.2028 39.6606 29.9956L42.0036 28.3126L40.5424 25.7808L37.8951 26.9743C37.5742 27.1191 37.2002 27.0678 36.9289 26.8423C36.3092 26.3216 35.6236 25.9238 34.8884 25.6561C34.5584 25.5351 34.3256 25.2363 34.2907 24.8861L34.0029 22.0004H31.0787L30.7909 24.8806C30.7561 25.2308 30.5232 25.5296 30.1932 25.6506C29.4617 25.9183 28.7742 26.3179 28.1527 26.8368C27.8832 27.0623 27.5092 27.1154 27.1884 26.9688L24.5411 25.7734L23.0799 28.3053L25.4229 29.9883C25.7089 30.1936 25.8501 30.5456 25.7914 30.8921C25.7236 31.2789 25.6686 31.6731 25.6686 32.0801C25.6686 32.4871 25.7236 32.8813 25.7914 33.2681C25.8519 33.6146 25.7089 33.9648 25.4229 34.1719L23.0799 35.8549L24.5411 38.3868L27.1884 37.1933C27.3094 37.142 27.4359 37.1163 27.5642 37.1163C27.7751 37.1163 27.9841 37.1896 28.1527 37.3308Z"
                  fill="white" />
      </g>
      <defs>
            <clipPath id="clip0_21_1590">
                  <rect class="fill-color-text" width="44" height="44" fill="white" />
            </clipPath>
      </defs>
</svg>