<svg width="32" height="32" viewBox="0 0 32 32" fill="none" xmlns="http://www.w3.org/2000/svg">
  <g clip-path="url(#clip0_1359_14466)">
    <path class="stroke-color-text"
      d="M21.4212 14.0804C21.4627 13.7085 21.4841 13.3346 21.4855 12.9603C21.4827 12.4074 21.4289 11.8559 21.3249 11.3133M28.7706 18C29.1596 16.6689 29.0517 15.2343 28.4637 13.9774C27.8496 12.6644 26.7601 11.6488 25.4269 11.1466C24.0938 10.6445 22.6221 10.6953 21.3249 11.2883C21.0154 9.61727 20.2484 8.07108 19.1135 6.83047C17.9786 5.58985 16.5227 4.70607 14.916 4.2824C13.3093 3.85874 11.6182 3.9127 10.0403 4.43798C8.46244 4.96326 7.06298 5.93816 6.00552 7.24874C4.94805 8.55931 4.27627 10.1514 4.06869 11.8389C3.86111 13.5265 4.1263 15.2397 4.83327 16.7784C5.02926 17.205 5.25696 17.6133 5.51357 18"
      stroke="white" stroke-width="3" stroke-linecap="round" stroke-linejoin="round" />
    <line class="stroke-color-text" x1="6" y1="22" x2="28" y2="22" stroke="white" stroke-width="2"
      stroke-linecap="round" />
    <line class="stroke-color-text" x1="10" y1="26" x2="25" y2="26" stroke="white" stroke-width="2"
      stroke-linecap="round" />
  </g>
  <defs>
    <clipPath id="clip0_1359_14466">
      <rect width="32" height="32" fill="white" />
    </clipPath>
  </defs>
</svg>