<svg width="32" height="32" viewBox="0 0 32 32" fill="none" xmlns="http://www.w3.org/2000/svg">
  <path class="stroke-color-text"
    d="M20.9212 14.6804C20.9627 14.3085 20.9841 13.9346 20.9855 13.5603C20.9827 13.0074 20.9289 12.4559 20.8249 11.9133M23.1302 22.5202C23.9639 22.5258 24.7878 22.3371 25.5399 21.9684C26.803 21.3025 27.763 20.1578 28.2156 18.7775C28.6682 17.3972 28.5779 15.8904 27.9637 14.5774C27.3496 13.2644 26.2601 12.2488 24.9269 11.7467C23.5938 11.2445 22.1221 11.2953 20.8249 11.8883C20.5154 10.2173 19.7484 8.67109 18.6135 7.43047C17.4786 6.18986 16.0227 5.30607 14.416 4.88241C12.8093 4.45874 11.1182 4.51271 9.54031 5.03799C7.96244 5.56327 6.56298 6.53817 5.50552 7.84874C4.44805 9.15931 3.77627 10.7514 3.56869 12.4389C3.36111 14.1265 3.6263 15.8397 4.33327 17.3784C5.04025 18.9172 6.1598 20.2178 7.56106 21.1283C8.18233 21.532 8.8476 21.8516 9.54031 22.0822"
    stroke="white" stroke-width="3" stroke-linecap="round" stroke-linejoin="round" />
  <path class="fill-color-text"
    d="M15.8333 17.6L12.5 25.0667H16.5L17.1667 29.6L20.5 22.1333H16.5L15.8333 17.6Z"
    fill="white" />
</svg>