<svg width="32" height="32" viewBox="0 0 32 32" fill="none" xmlns="http://www.w3.org/2000/svg">
  <path class="stroke-color-text"
    d="M20.9212 18.5804C20.9627 18.2085 20.9841 17.8346 20.9855 17.4603C20.9827 16.9074 20.9289 16.3559 20.8249 15.8133M12.2464 26.4202C10.5874 26.4216 8.96233 25.9388 7.56106 25.0283C6.1598 24.1178 5.04025 22.8172 4.33327 21.2784C3.6263 19.7397 3.36111 18.0265 3.56869 16.3389C3.77627 14.6514 4.44805 13.0593 5.50552 11.7487C6.56298 10.4382 7.96244 9.46326 9.54031 8.93798C11.1182 8.4127 12.8093 8.35874 14.416 8.7824C16.0227 9.20607 17.4786 10.0899 18.6135 11.3305C19.7484 12.5711 20.5154 14.1173 20.8249 15.7883C22.1221 15.1953 23.5938 15.1445 24.9269 15.6466C26.2601 16.1488 27.3496 17.1644 27.9637 18.4774C28.5779 19.7904 28.6682 21.2972 28.2156 22.6775C27.763 24.0577 26.803 25.2025 25.5399 25.8684C24.7878 26.2371 23.9639 26.4258 23.1302 26.4202H12.2464Z"
    stroke="white" stroke-width="3" stroke-linecap="round" stroke-linejoin="round" />
  <path class="stroke-color-text"
    d="M26.9275 17.5C27.9054 16.3323 28.5 14.7904 28.5 13.1C28.5 9.45492 25.735 6.5 22.3243 6.5C19.6354 6.5 17.3478 8.33658 16.5 10.9"
    stroke="white" stroke-width="3" />
</svg>