<svg width="32" height="32" viewBox="0 0 32 32" fill="none" xmlns="http://www.w3.org/2000/svg">
  <path class="stroke-color-text"
    d="M11.8522 24.4L6.39019 30M22.2294 24.4L16.7674 30M17.0402 24.4L11.5782 30M11.5788 12.0804C11.5373 11.7085 11.5159 11.3346 11.5145 10.9603C11.5173 10.4074 11.5711 9.85588 11.6751 9.31327M20.2536 19.9202C21.9126 19.9216 23.5377 19.4388 24.9389 18.5283C26.3402 17.6178 27.4597 16.3172 28.1667 14.7784C28.8737 13.2397 29.1389 11.5265 28.9313 9.83893C28.7237 8.1514 28.0519 6.55931 26.9945 5.24874C25.937 3.93816 24.5376 2.96326 22.9597 2.43798C21.3818 1.9127 19.6907 1.85874 18.084 2.2824C16.4773 2.70607 15.0214 3.58985 13.8865 4.83047C12.7516 6.07108 11.9846 7.61727 11.6751 9.2883C10.3779 8.69528 8.90624 8.64446 7.57309 9.14665C6.23994 9.64883 5.15044 10.6644 4.53628 11.9774C3.92212 13.2904 3.83175 14.7972 4.28439 16.1775C4.73703 17.5577 5.69696 18.7025 6.96006 19.3684C7.71216 19.7371 8.53614 19.9258 9.36977 19.9202H20.2536Z"
    stroke="white" stroke-width="3" stroke-linecap="round" stroke-linejoin="round" />
</svg>