<svg width="32" height="32" viewBox="0 0 32 32" fill="none" xmlns="http://www.w3.org/2000/svg">
  <g clip-path="url(#clip0_413_14513)">
    <g filter="url(#filter0_d_413_14513)">
      <path class="fill-color-text" fill-rule="evenodd" clip-rule="evenodd"
        d="M9.4 12.2491C8.09481 13.5392 7.20599 15.1827 6.84594 16.972C6.48589 18.7612 6.67077 20.6158 7.37722 22.3012C8.08367 23.9866 9.27994 25.4272 10.8148 26.4407C12.3496 27.4542 14.1541 27.9951 16 27.9951C17.8459 27.9951 19.6504 27.4542 21.1852 26.4407C22.7201 25.4272 23.9163 23.9866 24.6228 22.3012C25.3292 20.6158 25.5141 18.7612 25.1541 16.972C24.794 15.1827 23.9052 13.5392 22.6 12.2491L16 5.72648L9.4 12.2491ZM24.4853 10.3859C26.1635 12.0445 27.3064 14.1576 27.7694 16.4581C28.2324 18.7586 27.9948 21.1431 27.0865 23.3101C26.1783 25.4771 24.6402 27.3293 22.6668 28.6324C20.6934 29.9356 18.3734 30.6311 16 30.6311C13.6266 30.6311 11.3066 29.9356 9.33318 28.6324C7.35979 27.3293 5.82172 25.4771 4.91346 23.3101C4.00521 21.1431 3.76756 18.7586 4.23057 16.4581C4.69358 14.1576 5.83646 12.0445 7.51467 10.3859L16 2L24.4853 10.3859Z"
        fill="white" />
    </g>
  </g>
  <defs>
    <filter id="filter0_d_413_14513" x="1.73759" y="2" width="26.2624" height="31.6477"
      filterUnits="userSpaceOnUse" color-interpolation-filters="sRGB">
      <feFlood flood-opacity="0" result="BackgroundImageFix" />
      <feColorMatrix in="SourceAlpha" type="matrix"
        values="0 0 0 0 0 0 0 0 0 0 0 0 0 0 0 0 0 0 127 0" result="hardAlpha" />
      <feOffset dx="-1.50827" dy="2.26241" />
      <feGaussianBlur stdDeviation="0.377069" />
      <feColorMatrix type="matrix" values="0 0 0 0 0 0 0 0 0 0 0 0 0 0 0 0 0 0 0.1 0" />
      <feBlend mode="normal" in2="BackgroundImageFix" result="effect1_dropShadow_413_14513" />
      <feBlend mode="normal" in="SourceGraphic" in2="effect1_dropShadow_413_14513" result="shape" />
    </filter>
    <clipPath id="clip0_413_14513">
      <rect width="32" height="32" fill="white" />
    </clipPath>
  </defs>
</svg>