<svg width="30" height="29" viewBox="0 0 30 29" fill="none" xmlns="http://www.w3.org/2000/svg">
  <g filter="url(#filter0_d_413_14439)">
    <path class="fill-color-text" fill-rule="evenodd" clip-rule="evenodd"
      d="M5.66667 19.7628V17.1274H14.3333C15.185 17.1277 16.0203 17.3583 16.7488 17.7943C17.4774 18.2302 18.0713 18.8549 18.4662 19.6006C18.8612 20.3463 19.0421 21.1846 18.9894 22.0247C18.9367 22.8648 18.6524 23.6746 18.1673 24.3664C17.6822 25.0582 17.0147 25.6056 16.2373 25.9493C15.4599 26.293 14.6021 26.4199 13.757 26.3162C12.9118 26.2126 12.1114 25.8823 11.4426 25.3612C10.7738 24.8402 10.262 24.1481 9.96267 23.3601L12.46 22.4338C12.5882 22.7715 12.8075 23.0681 13.0942 23.2915C13.3808 23.5148 13.7238 23.6564 14.086 23.7008C14.4482 23.7453 14.8159 23.691 15.1491 23.5437C15.4822 23.3964 15.7683 23.1618 15.9762 22.8653C16.1842 22.5689 16.306 22.2218 16.3287 21.8618C16.3513 21.5018 16.2738 21.1425 16.1045 20.8229C15.9353 20.5033 15.6808 20.2355 15.3685 20.0487C15.0563 19.8618 14.6983 19.7629 14.3333 19.7628H5.66667ZM25 11.8565C25.8517 11.8568 26.687 12.0875 27.4155 12.5234C28.144 12.9594 28.7379 13.5841 29.1329 14.3298C29.5278 15.0755 29.7088 15.9138 29.6561 16.7539C29.6034 17.5939 29.3191 18.4037 28.8339 19.0955C28.3488 19.7873 27.6814 20.3347 26.904 20.6784C26.1266 21.0221 25.2688 21.149 24.4236 21.0454C23.5784 20.9417 22.7781 20.6115 22.1092 20.0904C21.4404 19.5693 20.9286 18.8773 20.6293 18.0893L23.1267 17.1629C23.2549 17.5007 23.4742 17.7973 23.7608 18.0206C24.0475 18.244 24.3905 18.3855 24.7527 18.43C25.1149 18.4745 25.4825 18.4201 25.8157 18.2728C26.1489 18.1256 26.435 17.891 26.6429 17.5945C26.8508 17.298 26.9727 16.951 26.9953 16.591C27.0179 16.2309 26.9404 15.8716 26.7712 15.552C26.6019 15.2324 26.3474 14.9647 26.0352 14.7778C25.723 14.591 25.365 14.4921 25 14.4919H7C5.93913 14.4919 4.92172 14.0755 4.17157 13.3341C3.42143 12.5927 3 11.5873 3 10.5388C3 9.49038 3.42143 8.48489 4.17157 7.74353C4.92172 7.00218 5.93913 6.58569 7 6.58569H18.3333C18.6983 6.58554 19.0563 6.48667 19.3685 6.29981C19.6808 6.11295 19.9353 5.84521 20.1045 5.5256C20.2738 5.206 20.3513 4.84671 20.3287 4.48668C20.306 4.12665 20.1842 3.7796 19.9762 3.48313C19.7683 3.18666 19.4822 2.95208 19.1491 2.8048C18.8159 2.65752 18.4482 2.60317 18.086 2.64763C17.7238 2.69208 17.3808 2.83366 17.0942 3.057C16.8075 3.28035 16.5882 3.57696 16.46 3.91469L13.9627 2.98966C14.3473 1.97872 15.0786 1.13319 16.0293 0.600399C16.9799 0.0676092 18.0895 -0.118668 19.1648 0.0740258C20.2401 0.266719 21.213 0.826167 21.9138 1.65489C22.6146 2.48362 22.999 3.52908 23 4.60912C23 5.8323 22.5083 7.00537 21.6332 7.87029C20.758 8.7352 19.571 9.22111 18.3333 9.22111H7C6.64638 9.22111 6.30724 9.35994 6.05719 9.60706C5.80714 9.85417 5.66667 10.1893 5.66667 10.5388C5.66667 10.8883 5.80714 11.2235 6.05719 11.4706C6.30724 11.7177 6.64638 11.8565 7 11.8565H25Z"
      fill="white" />
  </g>
  <defs>
    <filter id="filter0_d_413_14439" x="0.737588" y="0" width="28.9275" height="29.3679"
      filterUnits="userSpaceOnUse" color-interpolation-filters="sRGB">
      <feFlood flood-opacity="0" result="BackgroundImageFix" />
      <feColorMatrix in="SourceAlpha" type="matrix"
        values="0 0 0 0 0 0 0 0 0 0 0 0 0 0 0 0 0 0 127 0" result="hardAlpha" />
      <feOffset dx="-1.50827" dy="2.26241" />
      <feGaussianBlur stdDeviation="0.377069" />
      <feColorMatrix type="matrix" values="0 0 0 0 0 0 0 0 0 0 0 0 0 0 0 0 0 0 0.1 0" />
      <feBlend mode="normal" in2="BackgroundImageFix" result="effect1_dropShadow_413_14439" />
      <feBlend mode="normal" in="SourceGraphic" in2="effect1_dropShadow_413_14439" result="shape" />
    </filter>
  </defs>
</svg>