<svg width="32" height="32" viewBox="0 0 32 32" fill="none" xmlns="http://www.w3.org/2000/svg">
  <g clip-path="url(#clip0_1359_14467)">
    <path class="stroke-color-text"
      d="M11.5788 12.0804C11.5373 11.7085 11.5159 11.3346 11.5145 10.9603C11.5173 10.4074 11.5711 9.85588 11.6751 9.31327M9.36977 19.9202C8.53614 19.9258 7.71216 19.7371 6.96006 19.3684C5.69696 18.7025 4.73703 17.5577 4.28439 16.1775C3.83175 14.7972 3.92212 13.2904 4.53628 11.9774C5.15044 10.6644 6.23994 9.64883 7.57309 9.14665C8.90624 8.64446 10.3779 8.69528 11.6751 9.2883C11.9846 7.61727 12.7516 6.07108 13.8865 4.83047C15.0214 3.58985 16.4773 2.70607 18.084 2.2824C19.6907 1.85874 21.3818 1.9127 22.9597 2.43798C24.5376 2.96326 25.937 3.93816 26.9945 5.24874C28.0519 6.55931 28.7237 8.1514 28.9313 9.83893C29.1389 11.5265 28.8737 13.2397 28.1667 14.7784C27.6941 15.8072 27.037 16.7295 26.2346 17.5"
      stroke="white" stroke-width="3" stroke-linecap="round" stroke-linejoin="round" />
    <path class="fill-color-text"
      d="M15.7568 16.701L17.2432 15.8505L18 17.1495L16.5136 18L18 18.8505L17.2432 20.1495L15.7568 19.299V21H14.2432V19.299L12.7568 20.1495L12 18.8505L13.4864 18L12 17.1495L12.7568 15.8505L14.2432 16.701V15H15.7568V16.701Z"
      fill="white" />
    <path class="fill-color-text"
      d="M13.7568 25.701L15.2432 24.8505L16 26.1495L14.5136 27L16 27.8505L15.2432 29.1495L13.7568 28.299V30H12.2432V28.299L10.7568 29.1495L10 27.8505L11.4864 27L10 26.1495L10.7568 24.8505L12.2432 25.701V24H13.7568V25.701Z"
      fill="white" />
    <path class="fill-color-text"
      d="M22.7568 21.701L24.2432 20.8505L25 22.1495L23.5136 23L25 23.8505L24.2432 25.1495L22.7568 24.299V26H21.2432V24.299L19.7568 25.1495L19 23.8505L20.4864 23L19 22.1495L19.7568 20.8505L21.2432 21.701V20H22.7568V21.701Z"
      fill="white" />
  </g>
  <defs>
    <clipPath id="clip0_1359_14467">
      <rect width="32" height="32" fill="white" />
    </clipPath>
  </defs>
</svg>