<svg width="32" height="32" viewBox="0 0 32 32" fill="none" xmlns="http://www.w3.org/2000/svg">
  <path class="fill-color-text"
    d="M12.7273 10.5455C12.7269 12.0728 13.1273 13.5735 13.8886 14.8976C14.6499 16.2217 15.7453 17.3228 17.0655 18.091C18.3856 18.8591 19.8842 19.2673 21.4116 19.2748C22.9389 19.2823 24.4414 18.8889 25.7691 18.1338C25.2444 23.6691 20.5818 28 14.9091 28C8.884 28 4 23.116 4 17.0909C4 11.4182 8.33091 6.75564 13.8662 6.23091C13.1173 7.54539 12.7247 9.03264 12.7273 10.5455ZM6.18182 17.0909C6.18182 19.4055 7.1013 21.6253 8.73798 23.262C10.3747 24.8987 12.5945 25.8182 14.9091 25.8182C16.4511 25.8181 17.9655 25.4098 19.2986 24.6347C20.6316 23.8596 21.7356 22.7455 22.4985 21.4055C22.1538 21.4382 21.8047 21.4545 21.4545 21.4545C15.4295 21.4545 10.5455 16.5705 10.5455 10.5455C10.5455 10.1953 10.5618 9.84727 10.5945 9.50145C9.25452 10.2644 8.14036 11.3684 7.3653 12.7014C6.59024 14.0345 6.18191 15.5489 6.18182 17.0909ZM21.6335 6.49927L22.5455 6.72727V7.81818L21.6335 8.04618C21.2499 8.14211 20.8996 8.34046 20.62 8.62003C20.3405 8.8996 20.1421 9.24989 20.0462 9.63345L19.8182 10.5455H18.7273L18.4993 9.63345C18.4033 9.24989 18.205 8.8996 17.9254 8.62003C17.6459 8.34046 17.2956 8.14211 16.912 8.04618L16 7.81818V6.72727L16.912 6.49927C17.2954 6.40317 17.6454 6.20475 17.9248 5.92518C18.2042 5.64562 18.4023 5.29543 18.4982 4.912L18.7273 4H19.8182L20.0462 4.912C20.1421 5.29556 20.3405 5.64585 20.62 5.92542C20.8996 6.205 21.2499 6.40335 21.6335 6.49927ZM27.088 11.9538L28 12.1818V13.2727L27.088 13.5007C26.7044 13.5967 26.3542 13.795 26.0746 14.0746C25.795 14.3541 25.5967 14.7044 25.5007 15.088L25.2727 16H24.1818L23.9538 15.088C23.8579 14.7044 23.6595 14.3541 23.38 14.0746C23.1004 13.795 22.7501 13.5967 22.3665 13.5007L21.4545 13.2727V12.1818L22.3665 11.9538C22.7501 11.8579 23.1004 11.6595 23.38 11.38C23.6595 11.1004 23.8579 10.7501 23.9538 10.3665L24.1818 9.45455H25.2727L25.5007 10.3665C25.5967 10.7501 25.795 11.1004 26.0746 11.38C26.3542 11.6595 26.7044 11.8579 27.088 11.9538Z"
    fill="white" />
</svg>