<svg width="32" height="32" viewBox="0 0 32 32" fill="none" xmlns="http://www.w3.org/2000/svg">
  <path class="stroke-color-text"
    d="M20.9212 17.0804C20.9627 16.7085 20.9841 16.3346 20.9855 15.9603C20.9827 15.4074 20.9289 14.8559 20.8249 14.3133M12.2464 24.9202C10.5874 24.9216 8.96233 24.4388 7.56106 23.5283C6.1598 22.6178 5.04025 21.3172 4.33327 19.7784C3.6263 18.2397 3.36111 16.5265 3.56869 14.8389C3.77627 13.1514 4.44805 11.5593 5.50552 10.2487C6.56298 8.93816 7.96244 7.96326 9.54031 7.43798C11.1182 6.9127 12.8093 6.85874 14.416 7.2824C16.0227 7.70607 17.4786 8.58985 18.6135 9.83047C19.7484 11.0711 20.5154 12.6173 20.8249 14.2883C22.1221 13.6953 23.5938 13.6445 24.9269 14.1466C26.2601 14.6488 27.3496 15.6644 27.9637 16.9774C28.5779 18.2904 28.6682 19.7972 28.2156 21.1775C27.763 22.5577 26.803 23.7025 25.5399 24.3684C24.7878 24.7371 23.9639 24.9258 23.1302 24.9202H12.2464Z"
    stroke="white" stroke-width="3" stroke-linecap="round" stroke-linejoin="round" />
</svg>